<svg xmlns="http://www.w3.org/2000/svg" xmlns:xlink="http://www.w3.org/1999/xlink" width="11520" zoomAndPan="magnify" viewBox="0 0 8640 1727.999927" height="2304" preserveAspectRatio="xMidYMid meet" version="1.0"><defs><g/><clipPath id="id1"><path d="M 409.734375 0 L 8214.234375 0 L 8214.234375 1728 L 409.734375 1728 Z M 409.734375 0 " clip-rule="nonzero"/></clipPath><clipPath id="id2"><path d="M 7304 931 L 8056 931 L 8056 1724.550781 L 7304 1724.550781 Z M 7304 931 " clip-rule="nonzero"/></clipPath><clipPath id="id3"><path d="M 7886.078125 1446.074219 L 8104.328125 1446.074219 L 8104.328125 1664.324219 L 7886.078125 1664.324219 Z M 7886.078125 1446.074219 " clip-rule="nonzero"/></clipPath><clipPath id="id4"><path d="M 3968 646.183594 L 4057.699219 646.183594 L 4057.699219 736 L 3968 736 Z M 3968 646.183594 " clip-rule="nonzero"/></clipPath></defs><g clip-path="url(#id1)"><path fill="#2a9d8f" d="M 8161.835938 1728 L 462.132812 1728 C 433.261719 1728 409.734375 1704.472656 409.734375 1675.597656 L 409.734375 52.402344 C 409.734375 23.527344 433.261719 0 462.132812 0 L 8161.835938 0 C 8190.707031 0 8214.234375 23.527344 8214.234375 52.402344 L 8214.234375 1675.597656 C 8214.234375 1704.472656 8190.707031 1728 8161.835938 1728 " fill-opacity="1" fill-rule="nonzero"/></g><g fill="#ffffff" fill-opacity="1"><g transform="translate(555.960497, 1154.265959)"><g><path d="M 352.582031 -99.960938 C 352.582031 -102.988281 350.160156 -105.410156 347.738281 -105.410156 C 316.234375 -104.199219 215.667969 -98.746094 199.917969 -102.382812 C 187.195312 -105.410156 172.65625 -116.316406 180.53125 -131.460938 C 187.800781 -145.394531 211.429688 -142.972656 224.152344 -143.578125 C 238.085938 -144.789062 319.261719 -141.15625 347.738281 -141.15625 C 350.160156 -141.15625 352.582031 -143.578125 352.582031 -146 C 352.582031 -153.875 352.582031 -159.328125 352.582031 -167.808594 L 352.582031 -218.09375 C 352.582031 -221.121094 350.160156 -223.542969 347.738281 -223.542969 C 339.253906 -223.542969 197.496094 -221.726562 188.40625 -224.757812 C 180.53125 -227.179688 173.261719 -233.84375 173.867188 -242.929688 C 175.078125 -257.46875 190.832031 -261.710938 202.945312 -262.921875 C 233.84375 -267.769531 347.738281 -264.738281 347.738281 -264.738281 C 350.765625 -264.738281 352.582031 -267.164062 352.582031 -270.191406 C 352.582031 -270.191406 349.554688 -295.03125 350.160156 -307.148438 C 350.160156 -319.261719 351.371094 -355.613281 351.976562 -361.671875 C 352.582031 -368.335938 353.1875 -376.210938 353.1875 -376.816406 C 352.582031 -379.238281 350.160156 -380.449219 348.34375 -380.449219 L 25.445312 -380.449219 C 20.597656 -380.449219 16.960938 -376.210938 17.570312 -371.363281 C 26.050781 -311.386719 18.78125 -250.804688 18.175781 -190.832031 C 17.570312 -129.644531 17.570312 -69.0625 15.144531 -7.875 C 14.539062 -3.636719 18.175781 0 23.019531 0 L 350.160156 0 C 353.1875 0 355.007812 -1.816406 355.007812 -4.847656 C 355.007812 -4.847656 352.582031 -55.128906 352.582031 -66.640625 C 352.582031 -76.332031 352.582031 -89.660156 352.582031 -99.960938 Z M 352.582031 -99.960938 "/></g></g></g><g fill="#ffffff" fill-opacity="1"><g transform="translate(928.534568, 1154.265959)"><g><path d="M 350.765625 -380.449219 L 127.828125 -380.449219 C 109.046875 -380.449219 90.265625 -373.179688 73.910156 -365.304688 C 53.3125 -355.007812 38.773438 -337.4375 29.683594 -316.839844 C 13.328125 -281.097656 8.480469 -239.296875 21.808594 -203.554688 C 29.078125 -185.378906 41.800781 -167.808594 58.15625 -156.90625 C 79.96875 -142.972656 104.804688 -140.546875 130.855469 -141.761719 C 147.210938 -142.367188 196.285156 -149.636719 195.070312 -131.460938 C 194.464844 -122.375 189.011719 -117.527344 181.136719 -115.105469 C 158.722656 -109.652344 90.871094 -108.441406 66.640625 -110.863281 C 61.792969 -110.863281 35.742188 -110.863281 23.019531 -112.074219 C 19.992188 -112.074219 16.960938 -109.652344 16.960938 -106.621094 C 16.960938 -82.390625 18.78125 -58.15625 16.960938 -33.925781 C 15.75 -24.234375 15.144531 -14.539062 15.75 -4.847656 C 15.75 -1.816406 18.175781 0 20.597656 0 C 20.597656 0 211.429688 -0.605469 220.515625 -0.605469 C 232.632812 -1.210938 263.527344 0 289.578125 -7.875 C 310.175781 -14.539062 327.746094 -29.078125 334.410156 -39.378906 C 350.160156 -63.003906 353.792969 -87.238281 353.792969 -98.746094 C 353.792969 -175.6875 328.957031 -194.464844 311.992188 -209.003906 C 291.394531 -226.574219 264.738281 -230.207031 238.085938 -232.027344 C 211.429688 -233.238281 201.734375 -230.207031 179.925781 -233.84375 C 173.867188 -235.054688 162.964844 -236.265625 162.964844 -250.804688 C 162.964844 -265.953125 188.40625 -267.769531 218.699219 -268.375 C 239.296875 -268.980469 308.359375 -264.132812 348.949219 -262.921875 C 351.976562 -262.316406 354.398438 -265.347656 354.398438 -268.375 C 353.792969 -278.066406 351.371094 -301.089844 351.371094 -310.78125 C 351.976562 -350.160156 353.792969 -353.792969 352.582031 -379.238281 C 351.976562 -379.84375 351.371094 -379.84375 350.765625 -380.449219 Z M 350.765625 -380.449219 "/></g></g></g><g fill="#ffffff" fill-opacity="1"><g transform="translate(1299.896984, 1154.265959)"><g><path d="M 352.582031 -379.84375 C 352.582031 -380.449219 351.371094 -380.449219 351.371094 -380.449219 L 19.386719 -380.449219 C 16.960938 -380.449219 14.539062 -380.449219 14.539062 -376.816406 C 14.539062 -373.785156 13.933594 -298.664062 15.75 -275.644531 C 16.960938 -264.738281 17.570312 -234.449219 17.570312 -234.449219 L 17.570312 -233.84375 C 17.570312 -230.816406 19.992188 -227.785156 22.414062 -227.785156 C 22.414062 -227.785156 56.945312 -228.390625 67.851562 -227.785156 C 76.9375 -227.179688 85.417969 -224.757812 92.6875 -217.488281 C 101.171875 -209.003906 98.140625 -196.285156 99.351562 -183.5625 C 101.171875 -167.808594 96.324219 -31.503906 96.929688 -6.058594 C 96.929688 -2.421875 99.351562 0 101.777344 0 L 270.796875 0 C 273.828125 0 276.25 -2.421875 276.25 -6.058594 C 276.25 -15.144531 275.039062 -192.648438 278.066406 -213.246094 C 279.28125 -220.515625 283.519531 -223.542969 285.335938 -225.363281 C 293.214844 -230.207031 328.957031 -225.96875 348.34375 -228.390625 C 350.765625 -228.996094 353.1875 -231.421875 352.582031 -235.054688 C 352.582031 -250.804688 353.792969 -266.558594 354.398438 -281.703125 C 355.613281 -314.417969 352.582031 -347.128906 352.582031 -379.84375 Z M 352.582031 -379.84375 "/></g></g></g><g fill="#ffffff" fill-opacity="1"><g transform="translate(1671.259378, 1154.265959)"><g><path d="M 365.910156 -32.714844 C 351.371094 -92.082031 339.253906 -152.664062 326.53125 -213.246094 C 315.023438 -268.375 304.117188 -324.109375 298.058594 -380.449219 L 79.96875 -380.449219 C 78.753906 -370.152344 78.148438 -360.457031 76.332031 -350.160156 C 68.457031 -289.578125 52.101562 -232.027344 42.40625 -171.445312 C 33.925781 -113.894531 26.65625 -55.734375 13.933594 0.605469 L 161.144531 0.605469 C 161.75 -19.992188 163.570312 -39.984375 165.386719 -60.582031 C 167.203125 -85.417969 168.414062 -96.929688 182.957031 -96.324219 C 202.945312 -95.71875 198.707031 -87.84375 201.734375 -72.699219 C 205.976562 -52.707031 207.792969 -39.378906 209.609375 -15.75 C 210.21875 -10.90625 210.21875 -4.847656 210.21875 0 L 374.996094 0 C 371.96875 -10.90625 368.941406 -21.808594 365.910156 -32.714844 Z M 179.320312 -261.105469 C 179.925781 -267.164062 185.378906 -268.375 187.800781 -265.347656 C 195.675781 -256.257812 196.285156 -238.085938 196.890625 -222.332031 C 198.101562 -207.1875 200.523438 -180.53125 193.859375 -178.714844 C 192.042969 -178.714844 190.832031 -175.078125 189.011719 -175.6875 C 188.40625 -175.6875 188.40625 -175.6875 187.800781 -175.6875 C 164.78125 -176.292969 172.65625 -212.035156 179.320312 -261.105469 Z M 179.320312 -261.105469 "/></g></g></g><g fill="#ffffff" fill-opacity="1"><g transform="translate(2060.190378, 1154.265959)"><g/></g></g><g fill="#ffffff" fill-opacity="1"><g transform="translate(2169.236358, 1154.265959)"><g><path d="M 354.398438 -159.933594 C 353.792969 -162.359375 351.371094 -164.175781 348.949219 -164.175781 C 346.523438 -164.175781 242.324219 -160.539062 218.09375 -162.964844 C 202.339844 -164.175781 196.890625 -164.175781 182.957031 -172.050781 C 176.292969 -176.292969 171.445312 -185.378906 170.839844 -193.859375 C 170.839844 -203.554688 181.136719 -218.09375 204.765625 -218.09375 C 216.273438 -217.488281 332.589844 -221.121094 348.949219 -220.515625 C 351.976562 -220.515625 354.398438 -222.9375 354.398438 -225.96875 C 354.398438 -225.96875 351.976562 -316.234375 353.792969 -330.773438 C 353.792969 -334.410156 354.398438 -337.4375 354.398438 -340.464844 L 354.398438 -371.96875 C 354.398438 -374.996094 347.738281 -380.449219 344.707031 -380.449219 L 184.167969 -380.449219 C 139.335938 -380.449219 87.84375 -373.785156 63.003906 -350.160156 C 47.253906 -335.621094 32.714844 -319.261719 25.445312 -299.269531 C 18.78125 -278.671875 14.539062 -253.230469 14.539062 -226.574219 C 14.539062 -199.3125 14.539062 -225.96875 14.539062 -225.363281 L 14.539062 -152.664062 C 14.539062 -126.613281 18.175781 -100.566406 39.378906 -67.246094 C 49.070312 -51.492188 66.640625 -37.558594 83.601562 -27.261719 C 99.960938 -16.960938 130.25 0 207.1875 0 L 348.949219 0 C 351.976562 0 354.398438 -2.421875 354.398438 -5.453125 L 354.398438 -42.40625 C 351.371094 -72.089844 353.792969 -141.15625 354.398438 -159.933594 Z M 354.398438 -159.933594 "/></g></g></g><g fill="#ffffff" fill-opacity="1"><g transform="translate(2542.416257, 1154.265959)"><g><path d="M 351.371094 -262.921875 C 351.371094 -294.425781 335.015625 -329.5625 313.203125 -350.765625 C 290.789062 -371.96875 264.738281 -380.449219 233.238281 -380.449219 C 201.734375 -380.449219 122.375 -380.449219 121.164062 -380.449219 C 87.84375 -376.210938 68.457031 -369.546875 43.011719 -342.890625 C 27.867188 -327.140625 15.75 -301.089844 15.75 -265.347656 C 15.75 -229.601562 15.75 -136.914062 15.75 -113.894531 C 15.75 -90.871094 35.136719 -52.101562 50.28125 -36.953125 C 67.851562 -19.386719 98.746094 -2.421875 131.460938 0 C 134.492188 0 202.945312 0 212.035156 0 C 247.777344 0 265.953125 -10.296875 286.550781 -23.019531 C 304.117188 -33.925781 319.867188 -49.070312 330.167969 -68.457031 C 342.890625 -90.265625 351.371094 -110.863281 351.371094 -142.367188 C 351.371094 -173.867188 351.371094 -232.027344 351.371094 -262.921875 Z M 158.722656 -153.875 C 158.722656 -185.378906 158.722656 -224.757812 158.117188 -236.871094 C 158.117188 -246.566406 159.933594 -267.769531 180.53125 -267.769531 C 196.890625 -267.769531 199.3125 -253.835938 199.917969 -234.449219 C 201.128906 -212.640625 199.3125 -174.472656 199.3125 -144.183594 C 199.3125 -134.492188 196.890625 -115.710938 180.53125 -115.710938 C 167.808594 -115.710938 158.722656 -122.980469 158.722656 -153.875 Z M 158.722656 -153.875 "/></g></g></g><g fill="#ffffff" fill-opacity="1"><g transform="translate(2910.749723, 1154.265959)"><g><path d="M 385.296875 -182.347656 C 385.902344 -247.777344 388.929688 -312.597656 388.929688 -378.027344 C 388.929688 -379.238281 388.324219 -380.449219 387.113281 -380.449219 L 224.152344 -380.449219 C 223.542969 -380.449219 222.332031 -379.84375 222.332031 -378.632812 C 217.488281 -350.765625 213.851562 -296.242188 213.246094 -285.945312 C 212.640625 -275.644531 210.824219 -276.25 207.1875 -275.039062 C 203.554688 -273.828125 198.101562 -275.644531 197.496094 -280.492188 C 190.832031 -310.175781 190.832031 -345.3125 187.195312 -378.632812 C 186.589844 -379.84375 185.984375 -381.054688 184.773438 -381.054688 L 19.386719 -381.054688 C 18.175781 -381.054688 16.960938 -379.238281 17.570312 -378.027344 C 17.570312 -377.421875 17.570312 -376.816406 17.570312 -376.210938 C 17.570312 -356.824219 17.570312 -337.4375 18.175781 -317.445312 C 18.175781 -299.269531 19.992188 -107.230469 15.75 -6.664062 L 15.75 -2.421875 C 15.75 -1.210938 16.355469 0 17.570312 0 L 135.703125 0 C 136.914062 0 138.125 -1.210938 138.125 -2.421875 C 137.519531 -33.320312 141.761719 -76.332031 141.15625 -106.621094 C 141.15625 -117.527344 150.847656 -116.921875 153.875 -106.015625 C 161.144531 -72.089844 161.144531 -35.136719 167.808594 -1.816406 C 168.414062 -0.605469 169.023438 0 170.234375 0 L 227.179688 0 C 227.785156 0 228.996094 -0.605469 228.996094 -1.816406 C 236.265625 -37.558594 239.902344 -68.457031 247.171875 -109.046875 C 248.382812 -117.527344 258.074219 -113.285156 258.074219 -104.804688 C 258.074219 -67.851562 260.5 -36.953125 259.894531 -2.421875 C 259.894531 -1.210938 260.5 0 261.710938 0 L 387.71875 0 C 388.929688 0 390.144531 -1.210938 390.144531 -2.421875 C 390.144531 -2.421875 385.296875 -149.03125 385.296875 -182.347656 Z M 385.296875 -182.347656 "/></g></g></g><g fill="#ffffff" fill-opacity="1"><g transform="translate(3317.855037, 1154.265959)"><g/></g></g><g fill="#ffffff" fill-opacity="1"><g transform="translate(3426.901109, 1154.265959)"><g><path d="M 354.398438 -177.503906 C 354.398438 -191.4375 352.582031 -230.816406 350.160156 -244.75 C 347.738281 -257.46875 337.4375 -313.203125 299.269531 -344.707031 C 262.921875 -373.785156 232.027344 -380.449219 187.195312 -380.449219 C 142.367188 -380.449219 186.589844 -380.449219 186.589844 -380.449219 L 21.808594 -380.449219 C 18.78125 -380.449219 16.355469 -378.632812 16.355469 -375.605469 C 15.75 -368.941406 15.75 -362.882812 15.75 -356.21875 L 15.75 -251.414062 C 16.355469 -216.273438 18.175781 -180.53125 19.386719 -144.789062 C 19.992188 -112.679688 19.992188 -19.386719 18.175781 -5.453125 C 17.570312 -2.421875 19.992188 0 23.019531 0 C 23.019531 0 144.789062 0 145.394531 0 C 156.90625 -0.605469 191.4375 -0.605469 202.945312 -1.210938 C 212.640625 -1.816406 240.507812 -6.058594 265.953125 -16.960938 C 287.15625 -25.445312 311.992188 -44.222656 320.476562 -54.523438 C 338.648438 -76.332031 347.128906 -102.988281 347.128906 -102.988281 C 351.976562 -118.132812 354.398438 -151.453125 354.398438 -177.503906 Z M 197.496094 -153.875 C 193.253906 -133.277344 189.621094 -127.21875 178.109375 -127.21875 C 167.808594 -127.21875 167.808594 -139.335938 167.808594 -154.480469 L 167.808594 -228.996094 C 167.808594 -248.382812 170.839844 -252.019531 178.109375 -252.019531 C 185.378906 -252.019531 194.464844 -246.566406 197.496094 -218.699219 C 199.3125 -203.554688 199.917969 -166.597656 197.496094 -153.875 Z M 197.496094 -153.875 "/></g></g></g><g fill="#ffffff" fill-opacity="1"><g transform="translate(3797.657607, 1154.265959)"><g><path d="M 288.972656 -9.085938 C 306.542969 -15.75 321.6875 -29.683594 335.621094 -47.253906 C 355.613281 -72.699219 355.613281 -113.285156 355.613281 -146 L 355.613281 -376.816406 C 355.613281 -378.632812 354.398438 -380.449219 352.582031 -380.449219 L 204.765625 -380.449219 C 202.945312 -380.449219 201.128906 -378.632812 201.734375 -376.210938 C 202.339844 -359.246094 202.339844 -341.679688 201.734375 -324.714844 C 201.128906 -299.269531 201.128906 -215.0625 200.523438 -198.707031 C 199.917969 -182.347656 202.339844 -163.570312 193.253906 -151.453125 C 190.832031 -148.425781 181.136719 -144.183594 173.261719 -150.847656 C 165.386719 -157.511719 164.175781 -176.898438 162.964844 -193.253906 C 161.75 -209.609375 162.964844 -287.15625 162.964844 -309.570312 C 162.359375 -331.984375 162.359375 -354.398438 162.359375 -376.816406 C 162.359375 -379.238281 161.144531 -381.054688 159.328125 -381.054688 L 19.386719 -381.054688 C 17.570312 -381.054688 16.355469 -379.238281 16.355469 -376.816406 L 16.355469 -134.492188 C 16.355469 -112.074219 18.78125 -67.851562 38.773438 -41.195312 C 56.945312 -15.144531 95.71875 0 127.828125 0 L 230.207031 0 C 239.296875 0 265.953125 0 288.972656 -9.085938 Z M 288.972656 -9.085938 "/></g></g></g><g fill="#ffffff" fill-opacity="1"><g transform="translate(4172.048936, 1154.265959)"><g><path d="M 207.1875 -380.449219 C 205.976562 -380.449219 204.765625 -379.84375 204.765625 -378.632812 C 201.128906 -327.746094 192.042969 -297.453125 185.984375 -242.324219 C 185.378906 -233.238281 173.261719 -234.449219 172.65625 -244.140625 C 169.628906 -299.269531 159.933594 -331.378906 157.511719 -378.027344 C 157.511719 -379.84375 156.300781 -380.449219 155.089844 -380.449219 L 12.722656 -380.449219 C 11.511719 -380.449219 10.90625 -379.84375 11.511719 -379.84375 C 15.144531 -364.09375 23.625 -269.585938 29.078125 -238.691406 C 32.109375 -222.332031 40.589844 -159.328125 43.011719 -143.578125 C 49.070312 -96.324219 52.101562 -47.859375 62.398438 -1.816406 C 63.003906 -0.605469 63.609375 0.605469 64.820312 0.605469 L 302.300781 0.605469 C 303.511719 0.605469 304.722656 -0.605469 304.722656 -1.816406 C 305.933594 -12.117188 309.570312 -56.339844 314.417969 -93.296875 C 318.65625 -124.191406 345.3125 -313.8125 353.1875 -378.027344 C 353.1875 -379.238281 351.976562 -380.449219 350.765625 -380.449219 Z M 207.1875 -380.449219 "/></g></g></g><g fill="#ffffff" fill-opacity="1"><g transform="translate(4537.958815, 1154.265959)"><g><path d="M 17.570312 -380.449219 C 16.960938 -379.84375 16.355469 -379.238281 15.75 -378.027344 C 15.75 -354.398438 17.570312 -212.035156 18.175781 -164.78125 C 18.78125 -132.671875 20.597656 -23.625 16.355469 -2.421875 C 16.355469 -1.210938 17.570312 0 18.78125 0 L 190.226562 0 C 193.859375 0 196.890625 -3.027344 196.890625 -6.664062 C 194.464844 -35.136719 192.648438 -63.003906 192.042969 -91.476562 C 191.4375 -124.796875 187.800781 -314.417969 192.042969 -373.785156 C 192.042969 -377.421875 189.011719 -380.449219 185.378906 -380.449219 Z M 17.570312 -380.449219 "/></g></g></g><g fill="#ffffff" fill-opacity="1"><g transform="translate(4750.598445, 1154.265959)"><g><path d="M 354.398438 -177.503906 C 354.398438 -191.4375 352.582031 -230.816406 350.160156 -244.75 C 347.738281 -257.46875 337.4375 -313.203125 299.269531 -344.707031 C 262.921875 -373.785156 232.027344 -380.449219 187.195312 -380.449219 C 142.367188 -380.449219 186.589844 -380.449219 186.589844 -380.449219 L 21.808594 -380.449219 C 18.78125 -380.449219 16.355469 -378.632812 16.355469 -375.605469 C 15.75 -368.941406 15.75 -362.882812 15.75 -356.21875 L 15.75 -251.414062 C 16.355469 -216.273438 18.175781 -180.53125 19.386719 -144.789062 C 19.992188 -112.679688 19.992188 -19.386719 18.175781 -5.453125 C 17.570312 -2.421875 19.992188 0 23.019531 0 C 23.019531 0 144.789062 0 145.394531 0 C 156.90625 -0.605469 191.4375 -0.605469 202.945312 -1.210938 C 212.640625 -1.816406 240.507812 -6.058594 265.953125 -16.960938 C 287.15625 -25.445312 311.992188 -44.222656 320.476562 -54.523438 C 338.648438 -76.332031 347.128906 -102.988281 347.128906 -102.988281 C 351.976562 -118.132812 354.398438 -151.453125 354.398438 -177.503906 Z M 197.496094 -153.875 C 193.253906 -133.277344 189.621094 -127.21875 178.109375 -127.21875 C 167.808594 -127.21875 167.808594 -139.335938 167.808594 -154.480469 L 167.808594 -228.996094 C 167.808594 -248.382812 170.839844 -252.019531 178.109375 -252.019531 C 185.378906 -252.019531 194.464844 -246.566406 197.496094 -218.699219 C 199.3125 -203.554688 199.917969 -166.597656 197.496094 -153.875 Z M 197.496094 -153.875 "/></g></g></g><g fill="#ffffff" fill-opacity="1"><g transform="translate(5121.355131, 1154.265959)"><g><path d="M 365.910156 -32.714844 C 351.371094 -92.082031 339.253906 -152.664062 326.53125 -213.246094 C 315.023438 -268.375 304.117188 -324.109375 298.058594 -380.449219 L 79.96875 -380.449219 C 78.753906 -370.152344 78.148438 -360.457031 76.332031 -350.160156 C 68.457031 -289.578125 52.101562 -232.027344 42.40625 -171.445312 C 33.925781 -113.894531 26.65625 -55.734375 13.933594 0.605469 L 161.144531 0.605469 C 161.75 -19.992188 163.570312 -39.984375 165.386719 -60.582031 C 167.203125 -85.417969 168.414062 -96.929688 182.957031 -96.324219 C 202.945312 -95.71875 198.707031 -87.84375 201.734375 -72.699219 C 205.976562 -52.707031 207.792969 -39.378906 209.609375 -15.75 C 210.21875 -10.90625 210.21875 -4.847656 210.21875 0 L 374.996094 0 C 371.96875 -10.90625 368.941406 -21.808594 365.910156 -32.714844 Z M 179.320312 -261.105469 C 179.925781 -267.164062 185.378906 -268.375 187.800781 -265.347656 C 195.675781 -256.257812 196.285156 -238.085938 196.890625 -222.332031 C 198.101562 -207.1875 200.523438 -180.53125 193.859375 -178.714844 C 192.042969 -178.714844 190.832031 -175.078125 189.011719 -175.6875 C 188.40625 -175.6875 188.40625 -175.6875 187.800781 -175.6875 C 164.78125 -176.292969 172.65625 -212.035156 179.320312 -261.105469 Z M 179.320312 -261.105469 "/></g></g></g><g fill="#ffffff" fill-opacity="1"><g transform="translate(5510.286131, 1154.265959)"><g><path d="M 350.765625 -380.449219 L 127.828125 -380.449219 C 109.046875 -380.449219 90.265625 -373.179688 73.910156 -365.304688 C 53.3125 -355.007812 38.773438 -337.4375 29.683594 -316.839844 C 13.328125 -281.097656 8.480469 -239.296875 21.808594 -203.554688 C 29.078125 -185.378906 41.800781 -167.808594 58.15625 -156.90625 C 79.96875 -142.972656 104.804688 -140.546875 130.855469 -141.761719 C 147.210938 -142.367188 196.285156 -149.636719 195.070312 -131.460938 C 194.464844 -122.375 189.011719 -117.527344 181.136719 -115.105469 C 158.722656 -109.652344 90.871094 -108.441406 66.640625 -110.863281 C 61.792969 -110.863281 35.742188 -110.863281 23.019531 -112.074219 C 19.992188 -112.074219 16.960938 -109.652344 16.960938 -106.621094 C 16.960938 -82.390625 18.78125 -58.15625 16.960938 -33.925781 C 15.75 -24.234375 15.144531 -14.539062 15.75 -4.847656 C 15.75 -1.816406 18.175781 0 20.597656 0 C 20.597656 0 211.429688 -0.605469 220.515625 -0.605469 C 232.632812 -1.210938 263.527344 0 289.578125 -7.875 C 310.175781 -14.539062 327.746094 -29.078125 334.410156 -39.378906 C 350.160156 -63.003906 353.792969 -87.238281 353.792969 -98.746094 C 353.792969 -175.6875 328.957031 -194.464844 311.992188 -209.003906 C 291.394531 -226.574219 264.738281 -230.207031 238.085938 -232.027344 C 211.429688 -233.238281 201.734375 -230.207031 179.925781 -233.84375 C 173.867188 -235.054688 162.964844 -236.265625 162.964844 -250.804688 C 162.964844 -265.953125 188.40625 -267.769531 218.699219 -268.375 C 239.296875 -268.980469 308.359375 -264.132812 348.949219 -262.921875 C 351.976562 -262.316406 354.398438 -265.347656 354.398438 -268.375 C 353.792969 -278.066406 351.371094 -301.089844 351.371094 -310.78125 C 351.976562 -350.160156 353.792969 -353.792969 352.582031 -379.238281 C 351.976562 -379.84375 351.371094 -379.84375 350.765625 -380.449219 Z M 350.765625 -380.449219 "/></g></g></g><g fill="#ffffff" fill-opacity="1"><g transform="translate(5881.648525, 1154.265959)"><g/></g></g><g fill="#ffffff" fill-opacity="1"><g transform="translate(5990.694414, 1154.265959)"><g><path d="M 268.980469 -380.449219 L 15.75 -380.449219 C 15.144531 -380.449219 14.539062 -379.84375 14.539062 -378.632812 C 13.933594 -366.515625 14.539062 -354.398438 15.144531 -342.285156 C 16.355469 -328.351562 18.175781 -252.625 18.175781 -248.988281 C 18.175781 -248.382812 18.78125 -247.777344 19.386719 -247.777344 C 66.640625 -248.988281 179.320312 -251.414062 184.167969 -251.414062 C 194.464844 -252.019531 204.765625 -250.199219 208.398438 -237.476562 C 212.035156 -225.96875 205.976562 -215.667969 197.496094 -213.851562 C 178.109375 -208.398438 47.859375 -209.003906 19.992188 -207.792969 C 19.386719 -207.792969 18.78125 -207.1875 18.78125 -205.976562 C 19.386719 -179.320312 20.597656 -152.664062 19.992188 -126.613281 L 19.992188 -126.007812 C 19.992188 -124.796875 20.597656 -124.191406 21.203125 -124.191406 C 49.675781 -124.796875 213.851562 -121.769531 239.296875 -124.191406 C 262.316406 -126.007812 289.578125 -132.066406 310.78125 -146 C 338.042969 -163.570312 347.128906 -187.800781 350.160156 -198.707031 C 352.582031 -208.398438 353.792969 -218.09375 354.398438 -227.785156 L 354.398438 -279.28125 C 353.792969 -285.945312 353.1875 -322.898438 336.226562 -347.738281 C 320.476562 -369.546875 289.578125 -380.449219 268.980469 -380.449219 Z M 170.839844 -96.324219 C 171.445312 -97.535156 170.234375 -98.140625 169.628906 -98.140625 C 148.425781 -96.929688 49.675781 -97.535156 20.597656 -99.351562 C 19.992188 -99.351562 19.386719 -98.746094 19.386719 -98.140625 C 19.386719 -91.476562 19.992188 -63.003906 19.386719 -55.734375 C 18.78125 -43.011719 19.386719 -6.058594 19.386719 -0.605469 C 19.386719 0 19.992188 0.605469 21.203125 0.605469 L 171.445312 0.605469 C 172.65625 0.605469 173.261719 0 173.261719 -1.210938 C 170.234375 -16.960938 169.628906 -80.574219 170.839844 -96.324219 Z M 170.839844 -96.324219 "/></g></g></g><g fill="#ffffff" fill-opacity="1"><g transform="translate(6361.440458, 1154.265959)"><g/></g></g><g fill="#ffffff" fill-opacity="1"><g transform="translate(555.960497, 545.644754)"><g><path d="M 9.085938 0 L 24.171875 0 L 24.171875 -57.792969 L 115.585938 -57.792969 L 115.585938 -70.878906 L 24.171875 -70.878906 L 24.171875 -114.679688 L 126.308594 -114.679688 L 126.308594 -128.125 L 9.085938 -128.125 Z M 9.085938 0 "/></g></g></g><g fill="#ffffff" fill-opacity="1"><g transform="translate(684.991851, 545.644754)"><g><path d="M 51.976562 3.636719 C 79.238281 3.636719 102.863281 -6.179688 112.496094 -19.992188 L 112.679688 -19.992188 L 112.859375 -16.355469 C 113.222656 -4.363281 121.585938 3.636719 134.125 3.636719 C 143.757812 3.636719 152.660156 -0.546875 156.660156 -7.085938 L 149.027344 -15.992188 C 146.664062 -11.8125 141.757812 -9.085938 136.304688 -9.085938 C 130.308594 -9.085938 126.492188 -13.085938 126.492188 -19.265625 L 126.492188 -61.792969 C 126.492188 -83.78125 100.320312 -95.414062 71.242188 -95.414062 C 43.800781 -95.414062 16.355469 -85.054688 5.816406 -71.421875 L 13.992188 -62.15625 C 22.898438 -73.96875 47.253906 -82.691406 71.421875 -82.691406 C 95.230469 -82.691406 113.042969 -73.96875 113.042969 -63.609375 C 113.042969 -59.792969 110.316406 -57.613281 105.589844 -57.25 L 59.066406 -53.796875 C 21.808594 -50.886719 3.636719 -40.164062 3.636719 -23.082031 C 3.636719 -5.453125 21.082031 3.636719 51.976562 3.636719 Z M 53.25 -8.179688 C 29.441406 -8.179688 17.445312 -13.628906 17.445312 -24.351562 C 17.445312 -34.53125 31.621094 -40.164062 60.519531 -42.34375 L 112.679688 -46.34375 L 112.679688 -41.800781 C 112.679688 -23.261719 86.691406 -8.179688 53.25 -8.179688 Z M 53.25 -8.179688 "/></g></g></g><g fill="#ffffff" fill-opacity="1"><g transform="translate(841.646843, 545.644754)"><g><path d="M 7.269531 0 L 21.082031 0 L 21.082031 -133.578125 L 7.269531 -133.578125 Z M 7.269531 0 "/></g></g></g><g fill="#ffffff" fill-opacity="1"><g transform="translate(869.99738, 545.644754)"><g><path d="M 74.511719 3.636719 C 101.046875 3.636719 126.855469 -5.632812 139.578125 -18.539062 L 131.578125 -28.53125 C 121.21875 -17.628906 98.867188 -9.632812 75.96875 -9.632812 C 47.253906 -9.632812 23.808594 -22.171875 21.445312 -39.984375 L 132.488281 -39.984375 C 132.671875 -41.800781 132.851562 -45.070312 132.851562 -46.707031 C 132.851562 -75.058594 106.316406 -95.414062 69.605469 -95.414062 C 32.167969 -95.414062 5.453125 -75.058594 5.453125 -46.890625 C 5.453125 -17.628906 34.710938 3.636719 74.511719 3.636719 Z M 21.082031 -52.339844 C 22.71875 -69.425781 43.253906 -81.964844 68.699219 -81.964844 C 94.867188 -81.964844 115.949219 -70.695312 117.949219 -52.339844 Z M 21.082031 -52.339844 "/></g></g></g><g fill="#ffffff" fill-opacity="1"><g transform="translate(1014.657878, 545.644754)"><g/></g></g><g fill="#ffffff" fill-opacity="1"><g transform="translate(1071.540732, 545.644754)"><g><path d="M 69.425781 3.636719 C 102.320312 3.636719 130.125 -11.8125 139.03125 -34.53125 L 125.765625 -38.890625 C 119.402344 -20.71875 97.230469 -8.179688 71.058594 -8.179688 C 40.527344 -8.179688 19.082031 -23.261719 19.265625 -45.796875 C 19.265625 -68.335938 40.527344 -83.417969 70.515625 -83.417969 C 92.324219 -83.417969 108.679688 -74.695312 114.132812 -61.429688 L 126.855469 -66.152344 C 119.402344 -83.78125 97.230469 -95.414062 69.0625 -95.414062 C 31.804688 -95.414062 5.453125 -75.605469 5.453125 -45.796875 C 5.269531 -16.175781 31.257812 3.636719 69.425781 3.636719 Z M 69.425781 3.636719 "/></g></g></g><g fill="#ffffff" fill-opacity="1"><g transform="translate(1214.202172, 545.644754)"><g><path d="M 72.515625 3.636719 C 113.222656 3.636719 139.757812 -15.992188 139.757812 -45.796875 C 139.757812 -75.785156 113.222656 -95.414062 72.515625 -95.414062 C 31.984375 -95.414062 5.453125 -75.785156 5.453125 -45.796875 C 5.453125 -15.992188 31.984375 3.636719 72.515625 3.636719 Z M 72.515625 -8.90625 C 40.347656 -8.90625 19.265625 -23.445312 19.265625 -45.796875 C 19.265625 -68.152344 40.347656 -82.691406 72.515625 -82.691406 C 104.683594 -82.691406 125.765625 -68.152344 125.765625 -45.796875 C 125.765625 -23.445312 104.683594 -8.90625 72.515625 -8.90625 Z M 72.515625 -8.90625 "/></g></g></g><g fill="#ffffff" fill-opacity="1"><g transform="translate(1359.407912, 545.644754)"><g><path d="M 7.269531 0 L 21.082031 0 L 21.082031 -41.800781 C 21.082031 -67.425781 37.800781 -82.691406 66.335938 -82.691406 C 88.6875 -82.691406 101.957031 -71.421875 101.957031 -52.703125 L 101.957031 0 L 115.769531 0 L 115.769531 -41.800781 C 115.769531 -67.0625 132.488281 -82.691406 160.839844 -82.691406 C 183.195312 -82.691406 196.460938 -71.421875 196.460938 -52.703125 L 196.460938 0 L 210.453125 0 L 210.453125 -55.792969 C 210.453125 -78.695312 192.824219 -95.414062 163.019531 -95.414062 C 142.664062 -95.414062 122.492188 -87.597656 113.042969 -70.332031 L 112.859375 -70.332031 C 106.679688 -85.597656 91.050781 -95.414062 68.335938 -95.414062 C 47.253906 -95.414062 29.804688 -86.691406 21.261719 -72.332031 L 21.082031 -72.332031 L 19.808594 -91.777344 L 7.269531 -91.777344 Z M 7.269531 0 "/></g></g></g><g fill="#ffffff" fill-opacity="1"><g transform="translate(1576.216949, 545.644754)"><g><path d="M 16.355469 -109.589844 C 22.535156 -109.589844 26.714844 -113.585938 26.714844 -119.765625 C 26.714844 -125.765625 22.535156 -129.761719 16.355469 -129.761719 C 10.175781 -129.761719 6.179688 -125.765625 6.179688 -119.765625 C 6.179688 -113.585938 10.175781 -109.589844 16.355469 -109.589844 Z M 9.449219 0 L 23.261719 0 L 23.261719 -91.777344 L 9.449219 -91.777344 Z M 9.449219 0 "/></g></g></g><g fill="#ffffff" fill-opacity="1"><g transform="translate(1609.110837, 545.644754)"><g><path d="M 64.519531 41.800781 C 108.136719 41.800781 135.394531 22.171875 135.394531 -9.449219 L 135.394531 -91.777344 L 123.039062 -91.777344 L 121.402344 -71.058594 L 121.21875 -71.058594 C 113.40625 -85.597656 92.6875 -95.414062 69.242188 -95.414062 C 31.441406 -95.414062 5.816406 -75.058594 5.816406 -45.617188 C 5.816406 -16.355469 31.804688 3.636719 69.605469 3.636719 C 93.050781 3.636719 113.585938 -5.453125 121.21875 -18.71875 L 121.402344 -18.71875 L 121.402344 -9.449219 C 121.402344 14.359375 99.773438 29.261719 64.519531 29.261719 C 41.617188 29.261719 19.628906 22.71875 5.089844 12.722656 L -3.453125 23.808594 C 11.996094 34.894531 35.804688 41.800781 64.519531 41.800781 Z M 70.695312 -8.90625 C 40.710938 -8.90625 19.628906 -23.808594 19.628906 -45.617188 C 19.628906 -67.605469 40.347656 -82.691406 70.695312 -82.691406 C 100.867188 -82.691406 121.949219 -67.605469 121.949219 -45.617188 C 121.949219 -23.808594 101.046875 -8.90625 70.695312 -8.90625 Z M 70.695312 -8.90625 "/></g></g></g><g fill="#ffffff" fill-opacity="1"><g transform="translate(1751.772233, 545.644754)"><g><path d="M 72.515625 3.636719 C 113.222656 3.636719 139.757812 -15.992188 139.757812 -45.796875 C 139.757812 -75.785156 113.222656 -95.414062 72.515625 -95.414062 C 31.984375 -95.414062 5.453125 -75.785156 5.453125 -45.796875 C 5.453125 -15.992188 31.984375 3.636719 72.515625 3.636719 Z M 72.515625 -8.90625 C 40.347656 -8.90625 19.265625 -23.445312 19.265625 -45.796875 C 19.265625 -68.152344 40.347656 -82.691406 72.515625 -82.691406 C 104.683594 -82.691406 125.765625 -68.152344 125.765625 -45.796875 C 125.765625 -23.445312 104.683594 -8.90625 72.515625 -8.90625 Z M 72.515625 -8.90625 "/></g></g></g><path stroke-linecap="butt" transform="matrix(0.531294, 0, 0, 0.53134, 6619.113947, -29.096438)" fill-opacity="1" fill="#f4ede4" fill-rule="nonzero" stroke-linejoin="miter" d="M 3420.797214 1767.000827 C 3407.702706 2664.099355 3037.402396 3138.497197 1940.103281 2999.300111 C 1176.600139 3131.101386 530.800514 2591.802739 580.502293 1893.501526 C 471.202493 791.702266 1333.800396 817.499381 1889.401585 695.696418 C 3327.400512 380.301141 3430.296429 1117.301702 3420.797214 1767.000827 Z M 3420.797214 1767.000827 " stroke="#ffffff" stroke-width="1.029" stroke-opacity="1" stroke-miterlimit="10"/><path fill="#3c3c3c" d="M 8267.613281 220.421875 C 8121.984375 204.691406 7993.785156 285.296875 7981.351562 400.492188 C 7975.402344 455.699219 7997.078125 508.832031 8037.296875 550.914062 L 8037.617188 596.820312 C 8037.617188 600.011719 8040.164062 602.558594 8043.246094 602.507812 L 8104.503906 601.550781 C 8139.039062 620.148438 8179.097656 632.898438 8222.558594 637.628906 C 8368.1875 653.410156 8496.386719 572.753906 8508.875 457.558594 C 8521.253906 342.363281 8413.292969 236.203125 8267.613281 220.421875 Z M 8267.613281 220.421875 " fill-opacity="1" fill-rule="nonzero"/><path fill="#f9f7f7" d="M 8248.007812 196.667969 C 8102.378906 180.890625 7974.179688 261.546875 7961.695312 376.742188 C 7955.742188 431.945312 7977.417969 485.082031 8017.640625 527.164062 L 8017.957031 573.070312 C 8017.957031 576.257812 8020.507812 578.808594 8023.589844 578.757812 L 8084.847656 577.800781 C 8119.382812 596.398438 8159.441406 609.148438 8202.902344 613.878906 C 8348.527344 629.660156 8476.730469 549 8489.214844 433.808594 C 8501.648438 318.613281 8393.6875 212.449219 8248.007812 196.667969 Z M 8248.007812 196.667969 " fill-opacity="1" fill-rule="nonzero"/><path fill="#000000" d="M 8160.875 329.664062 C 8162.628906 319.992188 8167.570312 310.75 8175.59375 301.980469 C 8183.613281 293.214844 8194.1875 286.625 8207.3125 282.320312 C 8220.433594 277.964844 8234.882812 277.273438 8250.769531 280.195312 C 8265.539062 282.90625 8278.078125 288.007812 8288.386719 295.550781 C 8298.691406 303.042969 8306.078125 312.078125 8310.488281 322.542969 C 8314.949219 333.066406 8316.121094 343.796875 8314.152344 354.796875 C 8312.558594 363.457031 8309.425781 370.738281 8304.695312 376.582031 C 8299.96875 382.480469 8294.761719 387.316406 8289.078125 391.140625 C 8283.390625 394.964844 8273.246094 401.34375 8258.6875 410.269531 C 8254.648438 412.765625 8251.355469 415.050781 8248.859375 417.070312 C 8246.308594 419.089844 8244.394531 421 8243.011719 422.808594 C 8241.632812 424.613281 8240.464844 426.421875 8239.558594 428.332031 C 8238.65625 430.195312 8237.167969 433.542969 8235.152344 438.324219 C 8231.273438 448.578125 8224.257812 452.722656 8214.058594 450.863281 C 8208.746094 449.90625 8204.601562 447.355469 8201.625 443.210938 C 8198.652344 439.066406 8197.800781 433.59375 8199.023438 426.792969 C 8200.5625 418.238281 8203.273438 411.066406 8207.046875 405.328125 C 8210.816406 399.535156 8215.332031 394.699219 8220.59375 390.769531 C 8225.851562 386.835938 8232.757812 382.320312 8241.417969 377.164062 C 8248.964844 372.648438 8254.488281 369.195312 8257.890625 366.859375 C 8261.34375 364.46875 8264.371094 361.703125 8266.976562 358.515625 C 8269.632812 355.328125 8271.332031 351.609375 8272.074219 347.464844 C 8273.5625 339.335938 8271.808594 331.894531 8266.761719 325.199219 C 8261.714844 318.507812 8254.4375 314.253906 8244.875 312.5 C 8233.664062 310.429688 8224.898438 311.757812 8218.574219 316.433594 C 8212.253906 321.109375 8206.25 328.601562 8200.5625 338.960938 C 8194.984375 349.855469 8187.386719 354.371094 8177.71875 352.617188 C 8172.03125 351.554688 8167.570312 348.6875 8164.382812 343.957031 C 8161.195312 339.015625 8160.027344 334.339844 8160.875 329.664062 Z M 8204.707031 510.691406 C 8198.492188 509.574219 8193.445312 506.546875 8189.566406 501.660156 C 8185.6875 496.769531 8184.410156 490.765625 8185.6875 483.488281 C 8186.855469 477.058594 8190.097656 472.0625 8195.355469 468.554688 C 8200.617188 464.996094 8206.511719 463.828125 8213.046875 464.996094 C 8219.476562 466.164062 8224.472656 469.351562 8228.03125 474.507812 C 8231.589844 479.660156 8232.8125 485.507812 8231.644531 491.882812 C 8230.316406 499.003906 8227.023438 504.210938 8221.707031 507.398438 C 8216.394531 510.691406 8210.710938 511.753906 8204.707031 510.691406 Z M 8204.707031 510.691406 " fill-opacity="1" fill-rule="nonzero"/><path fill="#3c3c3c" d="M 7010.675781 637.46875 C 7141.800781 623.28125 7257.621094 699.53125 7269.3125 807.761719 C 7274.941406 859.621094 7255.605469 909.410156 7219.527344 948.78125 L 7219.421875 991.925781 C 7219.421875 994.902344 7217.191406 997.292969 7214.375 997.238281 L 7159.175781 996.070312 C 7128.148438 1013.390625 7092.070312 1025.1875 7053.023438 1029.4375 C 6921.953125 1043.625 6806.128906 967.378906 6794.441406 859.144531 C 6782.753906 750.910156 6879.554688 651.65625 7010.675781 637.46875 Z M 7010.675781 637.46875 " fill-opacity="1" fill-rule="nonzero"/><path fill="#f9f7f7" d="M 7021.355469 604.6875 C 7154.65625 586.25 7275.050781 660.847656 7290.351562 771.261719 C 7297.683594 824.183594 7279.511719 875.722656 7243.96875 917.113281 L 7245.191406 961.269531 C 7245.296875 964.347656 7243.066406 966.847656 7240.25 966.847656 L 7183.933594 967.273438 C 7152.851562 985.921875 7116.457031 999.097656 7076.71875 1004.570312 C 6943.414062 1023.007812 6823.023438 948.410156 6807.722656 837.996094 C 6792.367188 727.636719 6888.054688 623.121094 7021.355469 604.6875 Z M 7021.355469 604.6875 " fill-opacity="1" fill-rule="nonzero"/><path fill="#000000" d="M 6973.378906 747.03125 C 6973.167969 737.785156 6975.929688 728.328125 6981.617188 718.65625 C 6987.355469 708.988281 6995.800781 700.910156 7007.066406 694.429688 C 7018.328125 687.894531 7031.558594 684.492188 7046.753906 684.121094 C 7060.886719 683.800781 7073.421875 686.085938 7084.367188 691.027344 C 7095.3125 695.96875 7103.8125 702.878906 7109.921875 711.699219 C 7116.03125 720.515625 7119.222656 730.1875 7119.488281 740.707031 C 7119.699219 748.996094 7118.160156 756.277344 7114.96875 762.601562 C 7111.78125 768.921875 7107.90625 774.394531 7103.386719 779.019531 C 7098.871094 783.640625 7090.742188 791.503906 7079 802.503906 C 7075.761719 805.585938 7073.15625 808.347656 7071.246094 810.6875 C 7069.277344 813.023438 7067.84375 815.148438 7066.941406 817.0625 C 7065.984375 818.976562 7065.292969 820.886719 7064.816406 822.800781 C 7064.339844 824.714844 7063.59375 828.0625 7062.636719 832.894531 C 7061.042969 843.097656 7055.359375 848.304688 7045.582031 848.515625 C 7040.535156 848.625 7036.234375 847.082031 7032.671875 843.839844 C 7029.113281 840.601562 7027.308594 835.710938 7027.148438 829.175781 C 7026.933594 820.992188 7028.050781 813.875 7030.441406 807.816406 C 7032.832031 801.757812 7036.074219 796.394531 7040.164062 791.769531 C 7044.253906 787.148438 7049.78125 781.621094 7056.742188 775.191406 C 7062.851562 769.558594 7067.261719 765.363281 7069.96875 762.492188 C 7072.679688 759.625 7074.964844 756.488281 7076.769531 753.035156 C 7078.578125 749.582031 7079.425781 745.863281 7079.375 741.878906 C 7079.160156 734.066406 7076.132812 727.585938 7070.183594 722.324219 C 7064.230469 717.117188 7056.6875 714.621094 7047.550781 714.832031 C 7036.816406 715.097656 7029.007812 717.96875 7024.066406 723.492188 C 7019.125 729.019531 7015.035156 737.09375 7011.792969 747.722656 C 7008.765625 758.828125 7002.601562 764.460938 6993.304688 764.671875 C 6987.832031 764.777344 6983.210938 762.972656 6979.332031 759.253906 C 6975.453125 755.640625 6973.488281 751.496094 6973.378906 747.03125 Z M 7048.558594 905.53125 C 7042.609375 905.691406 7037.402344 903.882812 7032.832031 900.109375 C 7028.316406 896.390625 7025.980469 891.023438 7025.820312 884.117188 C 7025.660156 877.953125 7027.679688 872.746094 7031.875 868.441406 C 7036.074219 864.140625 7041.28125 861.90625 7047.496094 861.800781 C 7053.660156 861.640625 7058.867188 863.609375 7063.117188 867.699219 C 7067.417969 871.789062 7069.652344 876.890625 7069.757812 883.054688 C 7069.917969 889.855469 7067.84375 895.273438 7063.542969 899.3125 C 7059.289062 903.351562 7054.296875 905.421875 7048.558594 905.53125 Z M 7048.558594 905.53125 " fill-opacity="1" fill-rule="nonzero"/><path fill="#362c25" d="M 7473.488281 590.871094 C 7505.632812 493.210938 7543.671875 405.273438 7662.945312 395.550781 C 7719.636719 390.925781 7759.75 393.054688 7795.34375 415.527344 C 7851.769531 451.234375 7855.808594 477.589844 7883.964844 535.824219 C 7916.375 602.878906 7927.320312 614.570312 7944.480469 685.769531 C 7962.492188 760.792969 8026.617188 772.90625 8032.566406 867.964844 C 8035.332031 912.492188 8011.636719 959.300781 8040.058594 994.316406 C 8207.84375 1243.144531 8039.582031 1322.417969 7818.085938 1368.273438 C 7598.339844 1429.804688 7271.332031 1364.609375 7270.480469 1151.007812 C 7270.003906 1035.921875 7385.453125 988.152344 7364.574219 916.582031 C 7324.671875 806.011719 7441.503906 689.648438 7473.488281 590.871094 Z M 7473.488281 590.871094 " fill-opacity="1" fill-rule="nonzero"/><g clip-path="url(#id2)"><path fill="#e8ab23" d="M 7425.351562 1724.324219 C 7433.851562 1408.867188 7406.011719 1643.136719 7327.117188 1441.703125 C 7302.359375 1342.558594 7257.199219 996.65625 7448.835938 976.09375 C 7489.640625 964.457031 7553.925781 956.699219 7589.148438 931.726562 C 7637.339844 939.960938 7659.175781 1017.800781 7729.464844 964.402344 C 7802.625 924.339844 7769.949219 931.726562 7871.691406 943.734375 C 8130.539062 974.230469 8051.058594 1247.605469 8014.449219 1375.710938 C 7998.9375 1429.960938 7983 1410.515625 7984.964844 1460.832031 C 7986.664062 1503.554688 7987.886719 1663.59375 7985.390625 1724.378906 " fill-opacity="1" fill-rule="nonzero"/></g><path fill="#f4d3b9" d="M 7826.746094 627.640625 C 7825.949219 627 7825.152344 626.363281 7824.355469 625.621094 C 7796.78125 601.179688 7805.332031 493.847656 7719.050781 530.402344 C 7647.753906 560.585938 7568.695312 571.371094 7552.863281 624.71875 C 7547.230469 623.230469 7538.464844 624.609375 7528.6875 639.648438 C 7514.503906 661.378906 7519.179688 688.320312 7551.164062 707.925781 C 7560.40625 769.347656 7597.597656 815.519531 7622.941406 828.113281 C 7647.910156 891.875 7580.703125 936.1875 7580.703125 936.1875 C 7580.703125 936.1875 7708.746094 1059.460938 7795.984375 931.460938 C 7793.964844 934.382812 7780.839844 920.460938 7776.910156 893.574219 C 7773.402344 869.71875 7755.816406 824.128906 7755.816406 824.128906 C 7789.554688 791.558594 7809.054688 764.726562 7819.679688 705.375 C 7830.359375 698.203125 7840.71875 693.578125 7847.414062 679.339844 C 7856.550781 659.730469 7851.980469 623.496094 7826.746094 627.640625 Z M 7826.746094 627.640625 " fill-opacity="1" fill-rule="nonzero"/><path fill="#000000" d="M 7633.496094 639.667969 C 7633.90625 640.007812 7634.296875 640.363281 7634.667969 640.742188 C 7635.042969 641.121094 7635.394531 641.515625 7635.730469 641.925781 C 7636.066406 642.339844 7636.378906 642.765625 7636.671875 643.210938 C 7636.960938 643.652344 7637.230469 644.109375 7637.480469 644.578125 C 7637.726562 645.046875 7637.949219 645.527344 7638.152344 646.019531 C 7638.351562 646.511719 7638.527344 647.011719 7638.675781 647.519531 C 7638.828125 648.03125 7638.953125 648.546875 7639.054688 649.066406 C 7639.15625 649.585938 7639.230469 650.113281 7639.277344 650.640625 C 7639.328125 651.167969 7639.351562 651.699219 7639.347656 652.230469 C 7639.34375 652.761719 7639.316406 653.289062 7639.257812 653.816406 C 7639.203125 654.34375 7639.125 654.871094 7639.015625 655.390625 C 7638.910156 655.910156 7638.777344 656.421875 7638.621094 656.929688 C 7638.464844 657.4375 7638.28125 657.933594 7638.078125 658.425781 C 7637.871094 658.914062 7637.640625 659.390625 7637.386719 659.859375 C 7637.136719 660.324219 7636.859375 660.777344 7636.5625 661.214844 C 7636.265625 661.65625 7635.945312 662.078125 7635.609375 662.488281 C 7635.269531 662.898438 7634.910156 663.289062 7634.53125 663.660156 C 7634.15625 664.035156 7633.761719 664.386719 7633.347656 664.722656 C 7632.9375 665.054688 7632.507812 665.367188 7632.066406 665.660156 C 7631.621094 665.953125 7631.164062 666.222656 7630.695312 666.46875 C 7630.226562 666.71875 7629.746094 666.941406 7629.253906 667.140625 C 7628.761719 667.34375 7628.261719 667.519531 7627.753906 667.667969 C 7627.246094 667.820312 7626.730469 667.945312 7626.210938 668.046875 C 7625.6875 668.144531 7625.164062 668.222656 7624.636719 668.269531 C 7624.105469 668.320312 7623.578125 668.339844 7623.046875 668.339844 C 7622.515625 668.335938 7621.988281 668.304688 7621.457031 668.25 C 7620.929688 668.195312 7620.40625 668.113281 7619.886719 668.007812 C 7619.367188 667.902344 7618.855469 667.769531 7618.347656 667.613281 C 7617.839844 667.457031 7617.339844 667.273438 7616.851562 667.066406 C 7616.363281 666.863281 7615.886719 666.632812 7615.417969 666.378906 C 7614.953125 666.125 7614.5 665.851562 7614.058594 665.554688 C 7613.621094 665.257812 7613.195312 664.9375 7612.789062 664.597656 C 7612.378906 664.257812 7611.988281 663.902344 7611.617188 663.523438 C 7611.242188 663.144531 7610.890625 662.75 7610.554688 662.339844 C 7610.222656 661.925781 7609.910156 661.5 7609.617188 661.054688 C 7609.324219 660.613281 7609.054688 660.15625 7608.808594 659.6875 C 7608.558594 659.21875 7608.335938 658.738281 7608.136719 658.246094 C 7607.933594 657.753906 7607.757812 657.253906 7607.609375 656.746094 C 7607.457031 656.234375 7607.332031 655.722656 7607.230469 655.199219 C 7607.132812 654.679688 7607.054688 654.152344 7607.007812 653.625 C 7606.957031 653.097656 7606.9375 652.566406 7606.9375 652.035156 C 7606.941406 651.503906 7606.972656 650.976562 7607.027344 650.449219 C 7607.082031 649.921875 7607.164062 649.394531 7607.269531 648.875 C 7607.375 648.355469 7607.507812 647.84375 7607.664062 647.335938 C 7607.820312 646.828125 7608.003906 646.332031 7608.210938 645.84375 C 7608.414062 645.351562 7608.644531 644.875 7608.898438 644.410156 C 7609.152344 643.941406 7609.425781 643.488281 7609.722656 643.050781 C 7610.019531 642.609375 7610.339844 642.1875 7610.679688 641.777344 C 7611.019531 641.367188 7611.375 640.976562 7611.753906 640.605469 C 7612.132812 640.230469 7612.527344 639.878906 7612.9375 639.542969 C 7613.351562 639.210938 7613.777344 638.898438 7614.222656 638.605469 C 7614.664062 638.3125 7615.121094 638.042969 7615.589844 637.796875 C 7616.058594 637.546875 7616.539062 637.324219 7617.03125 637.125 C 7617.523438 636.921875 7618.023438 636.75 7618.53125 636.597656 C 7619.039062 636.445312 7619.554688 636.320312 7620.078125 636.21875 C 7620.597656 636.121094 7621.121094 636.042969 7621.652344 635.996094 C 7622.179688 635.945312 7622.710938 635.925781 7623.238281 635.925781 C 7623.769531 635.929688 7624.300781 635.960938 7624.828125 636.015625 C 7625.355469 636.070312 7625.878906 636.152344 7626.398438 636.257812 C 7626.917969 636.363281 7627.433594 636.496094 7627.9375 636.652344 C 7628.445312 636.808594 7628.945312 636.992188 7629.433594 637.199219 C 7629.921875 637.402344 7630.402344 637.632812 7630.867188 637.886719 C 7631.332031 638.140625 7631.785156 638.414062 7632.226562 638.710938 C 7632.664062 639.007812 7633.089844 639.328125 7633.496094 639.667969 Z M 7633.496094 639.667969 " fill-opacity="1" fill-rule="nonzero"/><path fill="#000000" d="M 7760.703125 651.761719 C 7760.917969 660.742188 7753.851562 668.179688 7744.871094 668.394531 C 7735.894531 668.605469 7728.457031 661.539062 7728.242188 652.558594 C 7728.03125 643.578125 7735.097656 636.140625 7744.074219 635.929688 C 7753.054688 635.714844 7760.492188 642.78125 7760.703125 651.761719 Z M 7760.703125 651.761719 " fill-opacity="1" fill-rule="nonzero"/><path stroke-linecap="round" transform="matrix(0.531294, 0, 0, 0.53134, 6619.113947, -29.096438)" fill="none" stroke-linejoin="round" d="M 1647.09806 2576.202432 C 1675.1031 2681.096485 1715.496824 2703.497115 1849.199021 2668.003108 C 1912.701132 2651.10155 1977.798699 2646.30089 2132.90354 2625.098588 " stroke="#745612" stroke-width="13.942" stroke-opacity="1" stroke-miterlimit="10"/><path stroke-linecap="round" transform="matrix(0.531294, 0, 0, 0.53134, 6619.113947, -29.096438)" fill="none" stroke-linejoin="round" d="M 2216.602513 1824.601395 C 2243.600284 1916.600567 2260.5033 1983.30254 2287.501071 2075.301713 C 2321.101238 2189.797086 2393.39674 2317.099121 2462.802775 2416.302959 " stroke="#745612" stroke-width="12.548" stroke-opacity="1" stroke-miterlimit="10"/><path stroke-linecap="round" transform="matrix(0.531294, 0, 0, 0.53134, 6619.113947, -29.096438)" fill-opacity="1" fill="#f4d3b9" fill-rule="nonzero" stroke-linejoin="round" d="M 2045.99895 1905.697996 C 1966.402581 1812.897489 1992.400434 1804.097504 1961.498574 1782.19679 C 1923.303198 1755.098425 1879.196545 1732.197879 1905.598777 1703.996759 C 1923.200265 1685.198462 1911.002743 1669.701079 1921.597456 1659.996835 C 1947.396797 1636.397878 1918.399191 1617.798078 1956.601919 1612.70335 C 1969.600846 1610.997755 1982.202747 1612.497502 1994.297336 1616.401255 C 2004.296511 1619.49632 1989.496262 1593.096366 1968.497996 1587.501723 C 1947.499729 1581.899727 1923.700224 1584.700725 1905.201751 1573.798154 C 1894.202659 1567.299251 1886.401832 1552.397356 1894.496752 1542.898959 C 1899.49634 1537.002896 1908.297084 1535.701645 1916.296423 1534.797386 C 1941.301712 1532.099312 1979.100062 1533.599059 2004.200931 1535.297302 C 2070.599861 1539.899466 2102.597219 1565.498085 2118.103292 1582.701063 C 2146.600939 1614.401592 2151.901972 1634.001224 2156.600113 1653.696428 C 2171.701808 1716.80342 2179.89966 1745.497105 2211.999951 1814.897151 " stroke="#a2836e" stroke-width="11.153" stroke-opacity="1" stroke-miterlimit="10"/><path stroke-linecap="round" transform="matrix(0.531294, 0, 0, 0.53134, 6619.113947, -29.096438)" fill="none" stroke-linejoin="round" d="M 2045.99895 1929.899792 C 2062.497588 1974.296708 2072.401182 2002.203761 2076.599365 2045.703769 C 2096.200688 2222.703295 2123.396972 2406.797212 2140.90288 2554.103222 C 2198.302553 3176.902477 2747.396926 2875.798905 2695.996758 2161.801813 " stroke="#745612" stroke-width="12.548" stroke-opacity="1" stroke-miterlimit="10"/><path stroke-linecap="round" transform="matrix(0.531294, 0, 0, 0.53134, 6619.113947, -29.096438)" fill="none" stroke-linejoin="round" d="M 1647.09806 2933.002482 C 1804.599762 2958.402605 2065.703206 2885.297301 2204.103545 2807.398689 " stroke="#745612" stroke-width="13.942" stroke-opacity="1" stroke-miterlimit="10"/><path stroke-linecap="round" transform="matrix(0.531294, 0, 0, 0.53134, 6619.113947, -29.096438)" fill="none" stroke-linejoin="round" d="M 2004.399444 1313.202449 C 2008.597626 1327.200085 2017.699816 1339.697975 2029.698825 1348.100968 C 2032.897091 1350.299126 2036.301222 1352.401712 2038.698083 1355.496778 C 2043.197711 1361.598689 2041.999281 1370.597169 2037.301139 1376.500584 C 2032.602997 1382.396648 2025.199197 1385.601989 2017.802749 1386.998812 " stroke="#a2836e" stroke-width="13.942" stroke-opacity="1" stroke-miterlimit="10"/><path stroke-linecap="round" transform="matrix(0.531294, 0, 0, 0.53134, 6619.113947, -29.096438)" fill="none" stroke-linejoin="round" d="M 1840.001251 1194.501902 C 1869.10179 1176.402017 1906.797207 1172.902608 1938.801918 1185.202002 " stroke="#362c25" stroke-width="13.942" stroke-opacity="1" stroke-miterlimit="10"/><path stroke-linecap="round" transform="matrix(0.531294, 0, 0, 0.53134, 6619.113947, -29.096438)" fill="none" stroke-linejoin="round" d="M 2070.298415 1178.497252 C 2099.803332 1192.597812 2133.800525 1197.199976 2165.996396 1191.597981 " stroke="#362c25" stroke-width="13.942" stroke-opacity="1" stroke-miterlimit="10"/><path stroke-linecap="round" transform="matrix(0.531294, 0, 0, 0.53134, 6619.113947, -29.096438)" fill="none" stroke-linejoin="round" d="M 1973.997542 1466.603018 C 1996.598617 1476.402834 2021.500973 1480.902074 2046.101883 1479.799319 " stroke="#a2836e" stroke-width="13.942" stroke-opacity="1" stroke-miterlimit="10"/><path stroke-linecap="round" transform="matrix(0.531294, 0, 0, 0.53134, 6619.113947, -29.096438)" fill="none" stroke-linejoin="round" d="M 1932.500968 1653.600856 C 1953.903612 1653.799352 1980.996964 1655.703442 1996.79713 1670.098071 " stroke="#a2836e" stroke-width="11.153" stroke-opacity="1" stroke-miterlimit="10"/><path stroke-linecap="round" transform="matrix(0.531294, 0, 0, 0.53134, 6619.113947, -29.096438)" fill="none" stroke-linejoin="round" d="M 1912.796712 1698.902031 C 1920.200513 1697.100864 1927.802826 1700.203282 1934.802248 1703.202775 C 1950.697995 1710.09867 1967.196633 1717.398908 1978.703036 1730.396713 " stroke="#a2836e" stroke-width="11.153" stroke-opacity="1" stroke-miterlimit="10"/><path fill="#ffffff" d="M 7995.359375 1449.34375 C 7936.894531 1449.34375 7889.503906 1496.734375 7889.503906 1555.199219 C 7889.503906 1574.226562 7894.550781 1592.070312 7903.339844 1607.5 L 7889.617188 1657.105469 C 7888.972656 1659.4375 7891.117188 1661.582031 7893.449219 1660.9375 L 7943.054688 1647.214844 C 7958.488281 1656.007812 7976.328125 1661.054688 7995.359375 1661.054688 C 8053.820312 1661.054688 8101.214844 1613.664062 8101.214844 1555.199219 C 8101.214844 1496.734375 8053.820312 1449.34375 7995.359375 1449.34375 Z M 7995.359375 1449.34375 " fill-opacity="1" fill-rule="nonzero"/><path fill="#60be92" d="M 7995.359375 1468.023438 C 7947.210938 1468.023438 7908.183594 1507.054688 7908.183594 1555.199219 C 7908.183594 1574.257812 7914.316406 1591.875 7924.695312 1606.222656 L 7917.179688 1633.375 L 7944.339844 1625.863281 C 7958.6875 1636.242188 7976.300781 1642.375 7995.359375 1642.375 C 8043.503906 1642.375 8082.535156 1603.34375 8082.535156 1555.199219 C 8082.535156 1507.054688 8043.503906 1468.023438 7995.359375 1468.023438 Z M 7995.359375 1468.023438 " fill-opacity="1" fill-rule="nonzero"/><path fill="#ffffff" d="M 7970.128906 1511.453125 C 7968.234375 1507.171875 7966.234375 1507.085938 7964.421875 1507.023438 C 7962.945312 1506.960938 7961.261719 1506.960938 7959.574219 1506.960938 C 7957.90625 1506.960938 7955.160156 1507.59375 7952.851562 1510.167969 C 7950.519531 1512.714844 7943.984375 1518.914062 7943.984375 1531.523438 C 7943.984375 1544.113281 7953.058594 1556.296875 7954.308594 1558.003906 C 7955.578125 1559.691406 7971.8125 1586.382812 7997.496094 1596.652344 C 8018.847656 1605.167969 8023.199219 1603.480469 8027.820312 1603.0625 C 8032.460938 1602.617188 8042.785156 1596.863281 8044.886719 1590.875 C 8046.988281 1584.910156 8046.988281 1579.785156 8046.367188 1578.710938 C 8045.738281 1577.636719 8044.054688 1577 8041.515625 1575.714844 C 8038.996094 1574.429688 8026.570312 1568.253906 8024.238281 1567.386719 C 8021.929688 1566.542969 8020.242188 1566.125 8018.554688 1568.671875 C 8016.871094 1571.222656 8012.023438 1577 8010.542969 1578.707031 C 8009.0625 1580.417969 8007.605469 1580.625 8005.070312 1579.363281 C 8002.550781 1578.074219 7994.410156 1575.375 7984.753906 1566.648438 C 7977.242188 1559.863281 7972.164062 1551.492188 7970.683594 1548.917969 C 7969.207031 1546.367188 7970.519531 1544.976562 7971.785156 1543.691406 C 7972.933594 1542.550781 7974.328125 1540.695312 7975.59375 1539.203125 C 7976.84375 1537.703125 7977.261719 1536.652344 7978.113281 1534.941406 C 7978.945312 1533.234375 7978.53125 1531.738281 7977.90625 1530.453125 C 7977.289062 1529.160156 7972.375 1516.511719 7970.128906 1511.453125 Z M 7970.128906 1511.453125 " fill-opacity="1" fill-rule="nonzero"/><g clip-path="url(#id3)"><path fill="#1f212b" d="M 7892.589844 1664.171875 C 7890.964844 1664.171875 7889.410156 1663.535156 7888.214844 1662.339844 C 7886.605469 1660.734375 7886.011719 1658.46875 7886.617188 1656.277344 L 7899.996094 1607.910156 C 7891.089844 1591.824219 7886.390625 1573.625 7886.390625 1555.199219 C 7886.390625 1495.113281 7935.273438 1446.230469 7995.359375 1446.230469 C 8055.445312 1446.230469 8104.328125 1495.113281 8104.328125 1555.199219 C 8104.328125 1615.285156 8055.445312 1664.167969 7995.359375 1664.167969 C 7976.929688 1664.167969 7958.730469 1659.464844 7942.648438 1650.558594 L 7894.277344 1663.941406 C 7893.71875 1664.097656 7893.148438 1664.171875 7892.589844 1664.171875 Z M 7943.054688 1644.105469 C 7943.59375 1644.105469 7944.125 1644.242188 7944.597656 1644.511719 C 7960.019531 1653.300781 7977.570312 1657.941406 7995.359375 1657.941406 C 8052.011719 1657.941406 8098.101562 1611.851562 8098.101562 1555.199219 C 8098.101562 1498.546875 8052.011719 1452.457031 7995.359375 1452.457031 C 7938.707031 1452.457031 7892.617188 1498.546875 7892.617188 1555.199219 C 7892.617188 1572.984375 7897.257812 1590.539062 7906.042969 1605.960938 C 7906.457031 1606.679688 7906.5625 1607.53125 7906.339844 1608.332031 L 7892.621094 1657.941406 L 7942.226562 1644.21875 C 7942.5 1644.140625 7942.777344 1644.105469 7943.054688 1644.105469 Z M 7943.054688 1644.105469 " fill-opacity="1" fill-rule="nonzero"/></g><path fill="#1f212b" d="M 8022.65625 1605.039062 C 8018.261719 1605.039062 8011.417969 1603.875 7996.921875 1598.097656 C 7981.390625 1591.890625 7966.003906 1578.261719 7953.605469 1559.730469 C 7953.335938 1559.335938 7953.160156 1559.066406 7953.066406 1558.941406 C 7949.8125 1554.496094 7942.429688 1543.160156 7942.429688 1531.523438 C 7942.429688 1519.0625 7948.609375 1512.4375 7951.246094 1509.609375 L 7951.703125 1509.117188 C 7954.710938 1505.765625 7958.210938 1505.40625 7959.574219 1505.40625 C 7961.285156 1505.40625 7962.992188 1505.40625 7964.488281 1505.472656 C 7966.894531 1505.554688 7969.429688 1506.039062 7971.550781 1510.828125 C 7972.882812 1513.824219 7975.097656 1519.359375 7976.878906 1523.804688 C 7978.011719 1526.625 7979.078125 1529.292969 7979.3125 1529.773438 C 7979.964844 1531.125 7980.699219 1533.203125 7979.515625 1535.625 L 7979.132812 1536.40625 C 7978.480469 1537.746094 7977.964844 1538.804688 7976.792969 1540.203125 C 7976.371094 1540.695312 7975.949219 1541.222656 7975.519531 1541.75 C 7974.632812 1542.84375 7973.714844 1543.976562 7972.886719 1544.796875 C 7971.640625 1546.0625 7971.164062 1546.640625 7972.035156 1548.140625 C 7973.804688 1551.21875 7978.679688 1559.066406 7985.800781 1565.496094 C 7993.671875 1572.609375 8000.394531 1575.574219 8004.003906 1577.164062 C 8004.746094 1577.488281 8005.34375 1577.753906 8005.777344 1577.980469 C 8007.898438 1579.039062 8008.496094 1578.699219 8009.367188 1577.691406 C 8010.914062 1575.90625 8015.65625 1570.242188 8017.257812 1567.816406 C 8019.722656 1564.082031 8022.761719 1565.195312 8024.769531 1565.925781 C 8027.316406 1566.871094 8040.246094 1573.320312 8042.222656 1574.332031 L 8043.597656 1575.011719 C 8045.554688 1575.96875 8046.964844 1576.65625 8047.707031 1577.929688 C 8048.722656 1579.683594 8048.421875 1585.515625 8046.351562 1591.394531 C 8043.941406 1598.246094 8032.828125 1604.152344 8027.960938 1604.613281 C 8027.523438 1604.65625 8027.097656 1604.703125 8026.65625 1604.757812 C 8025.484375 1604.886719 8024.222656 1605.039062 8022.65625 1605.039062 Z M 7959.667969 1508.515625 C 7958.886719 1508.515625 7956.34375 1508.605469 7954.011719 1511.203125 L 7953.527344 1511.730469 C 7950.933594 1514.507812 7945.542969 1520.292969 7945.542969 1531.523438 C 7945.542969 1542.242188 7952.503906 1552.902344 7955.496094 1556.996094 C 7955.664062 1557.214844 7955.878906 1557.53125 7956.191406 1557.996094 C 7968.246094 1576.015625 7983.121094 1589.226562 7998.078125 1595.207031 C 8017 1602.753906 8022.15625 1602.144531 8026.296875 1601.660156 C 8026.761719 1601.601562 8027.222656 1601.550781 8027.679688 1601.507812 C 8031.703125 1601.125 8041.535156 1595.71875 8043.421875 1590.355469 C 8045.363281 1584.839844 8045.335938 1580.253906 8045 1579.445312 C 8044.757812 1579.035156 8043.589844 1578.464844 8042.238281 1577.808594 L 8040.8125 1577.101562 C 8037.875 1575.601562 8025.859375 1569.640625 8023.699219 1568.84375 C 8021.457031 1568.027344 8020.871094 1567.996094 8019.859375 1569.53125 C 8018.039062 1572.285156 8012.902344 1578.367188 8011.726562 1579.726562 C 8009.210938 1582.628906 8006.472656 1581.800781 8004.382812 1580.753906 C 8003.96875 1580.542969 8003.421875 1580.304688 8002.753906 1580.007812 C 7999.25 1578.464844 7991.960938 1575.253906 7983.71875 1567.800781 C 7976.265625 1561.070312 7971.1875 1552.894531 7969.347656 1549.695312 C 7967.253906 1546.082031 7969.488281 1543.8125 7970.6875 1542.597656 C 7971.433594 1541.859375 7972.273438 1540.816406 7973.109375 1539.785156 C 7973.550781 1539.238281 7973.992188 1538.695312 7974.417969 1538.191406 C 7975.339844 1537.089844 7975.742188 1536.273438 7976.34375 1535.03125 L 7976.734375 1534.242188 C 7977.191406 1533.300781 7977.128906 1532.394531 7976.515625 1531.125 C 7976.25 1530.570312 7975.425781 1528.527344 7973.996094 1524.960938 C 7972.226562 1520.535156 7970.019531 1515.03125 7968.710938 1512.085938 L 7968.710938 1512.078125 C 7967.203125 1508.675781 7965.957031 1508.632812 7964.375 1508.578125 C 7962.925781 1508.515625 7961.300781 1508.515625 7959.667969 1508.515625 Z M 7959.667969 1508.515625 " fill-opacity="1" fill-rule="nonzero"/><path fill="#1f212b" d="M 7995.359375 1642.375 C 7977.621094 1642.375 7960.566406 1637.070312 7945.984375 1627.023438 L 7917.597656 1634.875 C 7917.050781 1635.03125 7916.476562 1634.871094 7916.082031 1634.476562 C 7915.6875 1634.078125 7915.53125 1633.5 7915.683594 1632.960938 L 7923.53125 1604.574219 C 7913.488281 1589.992188 7908.183594 1572.9375 7908.183594 1555.199219 C 7908.183594 1507.128906 7947.289062 1468.023438 7995.359375 1468.023438 C 8003.371094 1468.023438 8011.375 1469.132812 8019.132812 1471.332031 C 8019.960938 1471.566406 8020.441406 1472.429688 8020.210938 1473.253906 C 8019.976562 1474.078125 8019.105469 1474.5625 8018.289062 1474.332031 C 8010.800781 1472.210938 8003.085938 1471.136719 7995.359375 1471.136719 C 7949.007812 1471.136719 7911.296875 1508.847656 7911.296875 1555.199219 C 7911.296875 1572.539062 7916.550781 1589.207031 7926.503906 1603.390625 C 7926.769531 1603.769531 7926.851562 1604.25 7926.726562 1604.703125 L 7919.410156 1631.144531 L 7945.855469 1623.828125 C 7946.300781 1623.695312 7946.78125 1623.785156 7947.167969 1624.050781 C 7961.355469 1634.003906 7978.019531 1639.261719 7995.359375 1639.261719 C 8041.710938 1639.261719 8079.421875 1601.550781 8079.421875 1555.199219 C 8079.421875 1532.839844 8070.738281 1511.792969 8054.96875 1495.933594 C 8054.363281 1495.320312 8054.363281 1494.335938 8054.972656 1493.730469 C 8055.585938 1493.125 8056.570312 1493.125 8057.175781 1493.738281 C 8073.527344 1510.1875 8082.535156 1532.015625 8082.535156 1555.199219 C 8082.535156 1603.265625 8043.425781 1642.375 7995.359375 1642.375 Z M 7995.359375 1642.375 " fill-opacity="1" fill-rule="nonzero"/><path fill="#1f212b" d="M 8037.390625 1482.171875 C 8037.128906 1482.171875 8036.867188 1482.109375 8036.625 1481.972656 C 8033.625 1480.277344 8030.539062 1478.773438 8027.453125 1477.496094 C 8026.660156 1477.171875 8026.285156 1476.261719 8026.609375 1475.464844 C 8026.933594 1474.671875 8027.851562 1474.289062 8028.644531 1474.621094 C 8031.84375 1475.945312 8035.046875 1477.507812 8038.15625 1479.261719 C 8038.902344 1479.6875 8039.167969 1480.636719 8038.742188 1481.386719 C 8038.460938 1481.886719 8037.929688 1482.171875 8037.390625 1482.171875 Z M 8049.84375 1490.707031 C 8049.496094 1490.707031 8049.144531 1490.59375 8048.851562 1490.351562 C 8046.925781 1488.757812 8044.867188 1487.21875 8042.738281 1485.761719 C 8042.027344 1485.277344 8041.847656 1484.308594 8042.332031 1483.597656 C 8042.816406 1482.890625 8043.789062 1482.714844 8044.496094 1483.191406 C 8046.699219 1484.695312 8048.835938 1486.300781 8050.832031 1487.949219 C 8051.496094 1488.496094 8051.589844 1489.476562 8051.042969 1490.140625 C 8050.738281 1490.515625 8050.292969 1490.707031 8049.84375 1490.707031 Z M 8049.84375 1490.707031 " fill-opacity="1" fill-rule="nonzero"/><g clip-path="url(#id4)"><path fill="#ffffff" d="M 4049.648438 647.933594 L 3969.449219 728.132812 C 3969.238281 728.339844 3969.046875 728.5625 3968.878906 728.804688 C 3968.710938 729.050781 3968.566406 729.308594 3968.453125 729.578125 C 3968.335938 729.851562 3968.246094 730.132812 3968.183594 730.421875 C 3968.125 730.710938 3968.09375 731.003906 3968.089844 731.296875 C 3968.085938 731.59375 3968.113281 731.886719 3968.171875 732.179688 C 3968.226562 732.46875 3968.308594 732.75 3968.421875 733.023438 C 3968.535156 733.296875 3968.671875 733.558594 3968.835938 733.804688 C 3969 734.050781 3969.1875 734.277344 3969.394531 734.488281 C 3969.605469 734.695312 3969.832031 734.882812 3970.078125 735.046875 C 3970.324219 735.210938 3970.585938 735.347656 3970.859375 735.460938 C 3971.132812 735.574219 3971.414062 735.65625 3971.703125 735.710938 C 3971.996094 735.769531 3972.289062 735.796875 3972.585938 735.792969 C 3972.878906 735.789062 3973.171875 735.757812 3973.460938 735.699219 C 3973.75 735.636719 3974.03125 735.546875 3974.304688 735.429688 C 3974.574219 735.3125 3974.832031 735.171875 3975.078125 735.003906 C 3975.320312 734.835938 3975.542969 734.644531 3975.75 734.433594 L 4055.949219 654.234375 C 4056.148438 654.027344 4056.328125 653.800781 4056.484375 653.558594 C 4056.640625 653.316406 4056.773438 653.058594 4056.882812 652.789062 C 4056.988281 652.523438 4057.070312 652.246094 4057.121094 651.960938 C 4057.175781 651.675781 4057.199219 651.390625 4057.199219 651.101562 C 4057.195312 650.8125 4057.164062 650.523438 4057.109375 650.242188 C 4057.050781 649.957031 4056.964844 649.683594 4056.851562 649.417969 C 4056.742188 649.148438 4056.605469 648.894531 4056.441406 648.65625 C 4056.28125 648.414062 4056.097656 648.195312 4055.894531 647.988281 C 4055.6875 647.785156 4055.46875 647.601562 4055.226562 647.441406 C 4054.988281 647.277344 4054.734375 647.140625 4054.464844 647.03125 C 4054.199219 646.917969 4053.925781 646.832031 4053.640625 646.773438 C 4053.359375 646.71875 4053.070312 646.6875 4052.78125 646.683594 C 4052.492188 646.679688 4052.207031 646.707031 4051.921875 646.761719 C 4051.636719 646.8125 4051.359375 646.894531 4051.09375 647 C 4050.824219 647.109375 4050.566406 647.242188 4050.324219 647.398438 C 4050.082031 647.554688 4049.855469 647.734375 4049.648438 647.933594 Z M 4049.648438 647.933594 " fill-opacity="1" fill-rule="nonzero"/></g></svg>