<svg xmlns="http://www.w3.org/2000/svg" xmlns:xlink="http://www.w3.org/1999/xlink" width="11520" zoomAndPan="magnify" viewBox="0 0 8640 1727.999927" height="2304" preserveAspectRatio="xMidYMid meet" version="1.0"><defs><g/><clipPath id="id1"><path d="M 79.140625 0 L 8214.386719 0 L 8214.386719 1728 L 79.140625 1728 Z M 79.140625 0 " clip-rule="nonzero"/></clipPath><clipPath id="id2"><path d="M 7348 935 L 8100 935 L 8100 1727.878906 L 7348 1727.878906 Z M 7348 935 " clip-rule="nonzero"/></clipPath><clipPath id="id3"><path d="M 7886.078125 1446.074219 L 8104.328125 1446.074219 L 8104.328125 1664.324219 L 7886.078125 1664.324219 Z M 7886.078125 1446.074219 " clip-rule="nonzero"/></clipPath><clipPath id="id4"><path d="M 3586.242188 646.183594 L 3676 646.183594 L 3676 736 L 3586.242188 736 Z M 3586.242188 646.183594 " clip-rule="nonzero"/></clipPath></defs><g clip-path="url(#id1)"><path fill="#2a9d8f" d="M 8161.988281 1728 L 131.539062 1728 C 102.664062 1728 79.140625 1704.472656 79.140625 1675.601562 L 79.140625 52.402344 C 79.140625 23.527344 102.664062 0 131.539062 0 L 8161.988281 0 C 8190.863281 0 8214.390625 23.527344 8214.390625 52.402344 L 8214.390625 1675.601562 C 8214.390625 1704.472656 8190.863281 1728 8161.988281 1728 " fill-opacity="1" fill-rule="nonzero"/></g><g fill="#ffffff" fill-opacity="1"><g transform="translate(172.800169, 1154.266079)"><g><path d="M 352.582031 -99.960938 C 352.582031 -102.988281 350.160156 -105.410156 347.738281 -105.410156 C 316.234375 -104.199219 215.667969 -98.746094 199.917969 -102.382812 C 187.195312 -105.410156 172.65625 -116.316406 180.53125 -131.460938 C 187.800781 -145.394531 211.429688 -142.972656 224.152344 -143.578125 C 238.085938 -144.789062 319.261719 -141.15625 347.738281 -141.15625 C 350.160156 -141.15625 352.582031 -143.578125 352.582031 -146 C 352.582031 -153.875 352.582031 -159.328125 352.582031 -167.808594 L 352.582031 -218.09375 C 352.582031 -221.121094 350.160156 -223.542969 347.738281 -223.542969 C 339.253906 -223.542969 197.496094 -221.726562 188.40625 -224.757812 C 180.53125 -227.179688 173.261719 -233.84375 173.867188 -242.929688 C 175.078125 -257.46875 190.832031 -261.710938 202.945312 -262.921875 C 233.84375 -267.769531 347.738281 -264.738281 347.738281 -264.738281 C 350.765625 -264.738281 352.582031 -267.164062 352.582031 -270.191406 C 352.582031 -270.191406 349.554688 -295.03125 350.160156 -307.148438 C 350.160156 -319.261719 351.371094 -355.613281 351.976562 -361.671875 C 352.582031 -368.335938 353.1875 -376.210938 353.1875 -376.816406 C 352.582031 -379.238281 350.160156 -380.449219 348.34375 -380.449219 L 25.445312 -380.449219 C 20.597656 -380.449219 16.960938 -376.210938 17.570312 -371.363281 C 26.050781 -311.386719 18.78125 -250.804688 18.175781 -190.832031 C 17.570312 -129.644531 17.570312 -69.0625 15.144531 -7.875 C 14.539062 -3.636719 18.175781 0 23.019531 0 L 350.160156 0 C 353.1875 0 355.007812 -1.816406 355.007812 -4.847656 C 355.007812 -4.847656 352.582031 -55.128906 352.582031 -66.640625 C 352.582031 -76.332031 352.582031 -89.660156 352.582031 -99.960938 Z M 352.582031 -99.960938 "/></g></g></g><g fill="#ffffff" fill-opacity="1"><g transform="translate(545.37424, 1154.266079)"><g><path d="M 350.765625 -380.449219 L 127.828125 -380.449219 C 109.046875 -380.449219 90.265625 -373.179688 73.910156 -365.304688 C 53.3125 -355.007812 38.773438 -337.4375 29.683594 -316.839844 C 13.328125 -281.097656 8.480469 -239.296875 21.808594 -203.554688 C 29.078125 -185.378906 41.800781 -167.808594 58.15625 -156.90625 C 79.96875 -142.972656 104.804688 -140.546875 130.855469 -141.761719 C 147.210938 -142.367188 196.285156 -149.636719 195.070312 -131.460938 C 194.464844 -122.375 189.011719 -117.527344 181.136719 -115.105469 C 158.722656 -109.652344 90.871094 -108.441406 66.640625 -110.863281 C 61.792969 -110.863281 35.742188 -110.863281 23.019531 -112.074219 C 19.992188 -112.074219 16.960938 -109.652344 16.960938 -106.621094 C 16.960938 -82.390625 18.78125 -58.15625 16.960938 -33.925781 C 15.75 -24.234375 15.144531 -14.539062 15.75 -4.847656 C 15.75 -1.816406 18.175781 0 20.597656 0 C 20.597656 0 211.429688 -0.605469 220.515625 -0.605469 C 232.632812 -1.210938 263.527344 0 289.578125 -7.875 C 310.175781 -14.539062 327.746094 -29.078125 334.410156 -39.378906 C 350.160156 -63.003906 353.792969 -87.238281 353.792969 -98.746094 C 353.792969 -175.6875 328.957031 -194.464844 311.992188 -209.003906 C 291.394531 -226.574219 264.738281 -230.207031 238.085938 -232.027344 C 211.429688 -233.238281 201.734375 -230.207031 179.925781 -233.84375 C 173.867188 -235.054688 162.964844 -236.265625 162.964844 -250.804688 C 162.964844 -265.953125 188.40625 -267.769531 218.699219 -268.375 C 239.296875 -268.980469 308.359375 -264.132812 348.949219 -262.921875 C 351.976562 -262.316406 354.398438 -265.347656 354.398438 -268.375 C 353.792969 -278.066406 351.371094 -301.089844 351.371094 -310.78125 C 351.976562 -350.160156 353.792969 -353.792969 352.582031 -379.238281 C 351.976562 -379.84375 351.371094 -379.84375 350.765625 -380.449219 Z M 350.765625 -380.449219 "/></g></g></g><g fill="#ffffff" fill-opacity="1"><g transform="translate(916.736656, 1154.266079)"><g><path d="M 352.582031 -379.84375 C 352.582031 -380.449219 351.371094 -380.449219 351.371094 -380.449219 L 19.386719 -380.449219 C 16.960938 -380.449219 14.539062 -380.449219 14.539062 -376.816406 C 14.539062 -373.785156 13.933594 -298.664062 15.75 -275.644531 C 16.960938 -264.738281 17.570312 -234.449219 17.570312 -234.449219 L 17.570312 -233.84375 C 17.570312 -230.816406 19.992188 -227.785156 22.414062 -227.785156 C 22.414062 -227.785156 56.945312 -228.390625 67.851562 -227.785156 C 76.9375 -227.179688 85.417969 -224.757812 92.6875 -217.488281 C 101.171875 -209.003906 98.140625 -196.285156 99.351562 -183.5625 C 101.171875 -167.808594 96.324219 -31.503906 96.929688 -6.058594 C 96.929688 -2.421875 99.351562 0 101.777344 0 L 270.796875 0 C 273.828125 0 276.25 -2.421875 276.25 -6.058594 C 276.25 -15.144531 275.039062 -192.648438 278.066406 -213.246094 C 279.28125 -220.515625 283.519531 -223.542969 285.335938 -225.363281 C 293.214844 -230.207031 328.957031 -225.96875 348.34375 -228.390625 C 350.765625 -228.996094 353.1875 -231.421875 352.582031 -235.054688 C 352.582031 -250.804688 353.792969 -266.558594 354.398438 -281.703125 C 355.613281 -314.417969 352.582031 -347.128906 352.582031 -379.84375 Z M 352.582031 -379.84375 "/></g></g></g><g fill="#ffffff" fill-opacity="1"><g transform="translate(1288.09905, 1154.266079)"><g><path d="M 365.910156 -32.714844 C 351.371094 -92.082031 339.253906 -152.664062 326.53125 -213.246094 C 315.023438 -268.375 304.117188 -324.109375 298.058594 -380.449219 L 79.96875 -380.449219 C 78.753906 -370.152344 78.148438 -360.457031 76.332031 -350.160156 C 68.457031 -289.578125 52.101562 -232.027344 42.40625 -171.445312 C 33.925781 -113.894531 26.65625 -55.734375 13.933594 0.605469 L 161.144531 0.605469 C 161.75 -19.992188 163.570312 -39.984375 165.386719 -60.582031 C 167.203125 -85.417969 168.414062 -96.929688 182.957031 -96.324219 C 202.945312 -95.71875 198.707031 -87.84375 201.734375 -72.699219 C 205.976562 -52.707031 207.792969 -39.378906 209.609375 -15.75 C 210.21875 -10.90625 210.21875 -4.847656 210.21875 0 L 374.996094 0 C 371.96875 -10.90625 368.941406 -21.808594 365.910156 -32.714844 Z M 179.320312 -261.105469 C 179.925781 -267.164062 185.378906 -268.375 187.800781 -265.347656 C 195.675781 -256.257812 196.285156 -238.085938 196.890625 -222.332031 C 198.101562 -207.1875 200.523438 -180.53125 193.859375 -178.714844 C 192.042969 -178.714844 190.832031 -175.078125 189.011719 -175.6875 C 188.40625 -175.6875 188.40625 -175.6875 187.800781 -175.6875 C 164.78125 -176.292969 172.65625 -212.035156 179.320312 -261.105469 Z M 179.320312 -261.105469 "/></g></g></g><g fill="#ffffff" fill-opacity="1"><g transform="translate(1677.03005, 1154.266079)"><g/></g></g><g fill="#ffffff" fill-opacity="1"><g transform="translate(1786.07603, 1154.266079)"><g><path d="M 354.398438 -159.933594 C 353.792969 -162.359375 351.371094 -164.175781 348.949219 -164.175781 C 346.523438 -164.175781 242.324219 -160.539062 218.09375 -162.964844 C 202.339844 -164.175781 196.890625 -164.175781 182.957031 -172.050781 C 176.292969 -176.292969 171.445312 -185.378906 170.839844 -193.859375 C 170.839844 -203.554688 181.136719 -218.09375 204.765625 -218.09375 C 216.273438 -217.488281 332.589844 -221.121094 348.949219 -220.515625 C 351.976562 -220.515625 354.398438 -222.9375 354.398438 -225.96875 C 354.398438 -225.96875 351.976562 -316.234375 353.792969 -330.773438 C 353.792969 -334.410156 354.398438 -337.4375 354.398438 -340.464844 L 354.398438 -371.96875 C 354.398438 -374.996094 347.738281 -380.449219 344.707031 -380.449219 L 184.167969 -380.449219 C 139.335938 -380.449219 87.84375 -373.785156 63.003906 -350.160156 C 47.253906 -335.621094 32.714844 -319.261719 25.445312 -299.269531 C 18.78125 -278.671875 14.539062 -253.230469 14.539062 -226.574219 C 14.539062 -199.3125 14.539062 -225.96875 14.539062 -225.363281 L 14.539062 -152.664062 C 14.539062 -126.613281 18.175781 -100.566406 39.378906 -67.246094 C 49.070312 -51.492188 66.640625 -37.558594 83.601562 -27.261719 C 99.960938 -16.960938 130.25 0 207.1875 0 L 348.949219 0 C 351.976562 0 354.398438 -2.421875 354.398438 -5.453125 L 354.398438 -42.40625 C 351.371094 -72.089844 353.792969 -141.15625 354.398438 -159.933594 Z M 354.398438 -159.933594 "/></g></g></g><g fill="#ffffff" fill-opacity="1"><g transform="translate(2159.255929, 1154.266079)"><g><path d="M 351.371094 -262.921875 C 351.371094 -294.425781 335.015625 -329.5625 313.203125 -350.765625 C 290.789062 -371.96875 264.738281 -380.449219 233.238281 -380.449219 C 201.734375 -380.449219 122.375 -380.449219 121.164062 -380.449219 C 87.84375 -376.210938 68.457031 -369.546875 43.011719 -342.890625 C 27.867188 -327.140625 15.75 -301.089844 15.75 -265.347656 C 15.75 -229.601562 15.75 -136.914062 15.75 -113.894531 C 15.75 -90.871094 35.136719 -52.101562 50.28125 -36.953125 C 67.851562 -19.386719 98.746094 -2.421875 131.460938 0 C 134.492188 0 202.945312 0 212.035156 0 C 247.777344 0 265.953125 -10.296875 286.550781 -23.019531 C 304.117188 -33.925781 319.867188 -49.070312 330.167969 -68.457031 C 342.890625 -90.265625 351.371094 -110.863281 351.371094 -142.367188 C 351.371094 -173.867188 351.371094 -232.027344 351.371094 -262.921875 Z M 158.722656 -153.875 C 158.722656 -185.378906 158.722656 -224.757812 158.117188 -236.871094 C 158.117188 -246.566406 159.933594 -267.769531 180.53125 -267.769531 C 196.890625 -267.769531 199.3125 -253.835938 199.917969 -234.449219 C 201.128906 -212.640625 199.3125 -174.472656 199.3125 -144.183594 C 199.3125 -134.492188 196.890625 -115.710938 180.53125 -115.710938 C 167.808594 -115.710938 158.722656 -122.980469 158.722656 -153.875 Z M 158.722656 -153.875 "/></g></g></g><g fill="#ffffff" fill-opacity="1"><g transform="translate(2527.589396, 1154.266079)"><g><path d="M 385.296875 -182.347656 C 385.902344 -247.777344 388.929688 -312.597656 388.929688 -378.027344 C 388.929688 -379.238281 388.324219 -380.449219 387.113281 -380.449219 L 224.152344 -380.449219 C 223.542969 -380.449219 222.332031 -379.84375 222.332031 -378.632812 C 217.488281 -350.765625 213.851562 -296.242188 213.246094 -285.945312 C 212.640625 -275.644531 210.824219 -276.25 207.1875 -275.039062 C 203.554688 -273.828125 198.101562 -275.644531 197.496094 -280.492188 C 190.832031 -310.175781 190.832031 -345.3125 187.195312 -378.632812 C 186.589844 -379.84375 185.984375 -381.054688 184.773438 -381.054688 L 19.386719 -381.054688 C 18.175781 -381.054688 16.960938 -379.238281 17.570312 -378.027344 C 17.570312 -377.421875 17.570312 -376.816406 17.570312 -376.210938 C 17.570312 -356.824219 17.570312 -337.4375 18.175781 -317.445312 C 18.175781 -299.269531 19.992188 -107.230469 15.75 -6.664062 L 15.75 -2.421875 C 15.75 -1.210938 16.355469 0 17.570312 0 L 135.703125 0 C 136.914062 0 138.125 -1.210938 138.125 -2.421875 C 137.519531 -33.320312 141.761719 -76.332031 141.15625 -106.621094 C 141.15625 -117.527344 150.847656 -116.921875 153.875 -106.015625 C 161.144531 -72.089844 161.144531 -35.136719 167.808594 -1.816406 C 168.414062 -0.605469 169.023438 0 170.234375 0 L 227.179688 0 C 227.785156 0 228.996094 -0.605469 228.996094 -1.816406 C 236.265625 -37.558594 239.902344 -68.457031 247.171875 -109.046875 C 248.382812 -117.527344 258.074219 -113.285156 258.074219 -104.804688 C 258.074219 -67.851562 260.5 -36.953125 259.894531 -2.421875 C 259.894531 -1.210938 260.5 0 261.710938 0 L 387.71875 0 C 388.929688 0 390.144531 -1.210938 390.144531 -2.421875 C 390.144531 -2.421875 385.296875 -149.03125 385.296875 -182.347656 Z M 385.296875 -182.347656 "/></g></g></g><g fill="#ffffff" fill-opacity="1"><g transform="translate(2934.694709, 1154.266079)"><g/></g></g><g fill="#ffffff" fill-opacity="1"><g transform="translate(3043.740781, 1154.266079)"><g><path d="M 354.398438 -177.503906 C 354.398438 -191.4375 352.582031 -230.816406 350.160156 -244.75 C 347.738281 -257.46875 337.4375 -313.203125 299.269531 -344.707031 C 262.921875 -373.785156 232.027344 -380.449219 187.195312 -380.449219 C 142.367188 -380.449219 186.589844 -380.449219 186.589844 -380.449219 L 21.808594 -380.449219 C 18.78125 -380.449219 16.355469 -378.632812 16.355469 -375.605469 C 15.75 -368.941406 15.75 -362.882812 15.75 -356.21875 L 15.75 -251.414062 C 16.355469 -216.273438 18.175781 -180.53125 19.386719 -144.789062 C 19.992188 -112.679688 19.992188 -19.386719 18.175781 -5.453125 C 17.570312 -2.421875 19.992188 0 23.019531 0 C 23.019531 0 144.789062 0 145.394531 0 C 156.90625 -0.605469 191.4375 -0.605469 202.945312 -1.210938 C 212.640625 -1.816406 240.507812 -6.058594 265.953125 -16.960938 C 287.15625 -25.445312 311.992188 -44.222656 320.476562 -54.523438 C 338.648438 -76.332031 347.128906 -102.988281 347.128906 -102.988281 C 351.976562 -118.132812 354.398438 -151.453125 354.398438 -177.503906 Z M 197.496094 -153.875 C 193.253906 -133.277344 189.621094 -127.21875 178.109375 -127.21875 C 167.808594 -127.21875 167.808594 -139.335938 167.808594 -154.480469 L 167.808594 -228.996094 C 167.808594 -248.382812 170.839844 -252.019531 178.109375 -252.019531 C 185.378906 -252.019531 194.464844 -246.566406 197.496094 -218.699219 C 199.3125 -203.554688 199.917969 -166.597656 197.496094 -153.875 Z M 197.496094 -153.875 "/></g></g></g><g fill="#ffffff" fill-opacity="1"><g transform="translate(3414.49728, 1154.266079)"><g><path d="M 288.972656 -9.085938 C 306.542969 -15.75 321.6875 -29.683594 335.621094 -47.253906 C 355.613281 -72.699219 355.613281 -113.285156 355.613281 -146 L 355.613281 -376.816406 C 355.613281 -378.632812 354.398438 -380.449219 352.582031 -380.449219 L 204.765625 -380.449219 C 202.945312 -380.449219 201.128906 -378.632812 201.734375 -376.210938 C 202.339844 -359.246094 202.339844 -341.679688 201.734375 -324.714844 C 201.128906 -299.269531 201.128906 -215.0625 200.523438 -198.707031 C 199.917969 -182.347656 202.339844 -163.570312 193.253906 -151.453125 C 190.832031 -148.425781 181.136719 -144.183594 173.261719 -150.847656 C 165.386719 -157.511719 164.175781 -176.898438 162.964844 -193.253906 C 161.75 -209.609375 162.964844 -287.15625 162.964844 -309.570312 C 162.359375 -331.984375 162.359375 -354.398438 162.359375 -376.816406 C 162.359375 -379.238281 161.144531 -381.054688 159.328125 -381.054688 L 19.386719 -381.054688 C 17.570312 -381.054688 16.355469 -379.238281 16.355469 -376.816406 L 16.355469 -134.492188 C 16.355469 -112.074219 18.78125 -67.851562 38.773438 -41.195312 C 56.945312 -15.144531 95.71875 0 127.828125 0 L 230.207031 0 C 239.296875 0 265.953125 0 288.972656 -9.085938 Z M 288.972656 -9.085938 "/></g></g></g><g fill="#ffffff" fill-opacity="1"><g transform="translate(3788.888608, 1154.266079)"><g><path d="M 207.1875 -380.449219 C 205.976562 -380.449219 204.765625 -379.84375 204.765625 -378.632812 C 201.128906 -327.746094 192.042969 -297.453125 185.984375 -242.324219 C 185.378906 -233.238281 173.261719 -234.449219 172.65625 -244.140625 C 169.628906 -299.269531 159.933594 -331.378906 157.511719 -378.027344 C 157.511719 -379.84375 156.300781 -380.449219 155.089844 -380.449219 L 12.722656 -380.449219 C 11.511719 -380.449219 10.90625 -379.84375 11.511719 -379.84375 C 15.144531 -364.09375 23.625 -269.585938 29.078125 -238.691406 C 32.109375 -222.332031 40.589844 -159.328125 43.011719 -143.578125 C 49.070312 -96.324219 52.101562 -47.859375 62.398438 -1.816406 C 63.003906 -0.605469 63.609375 0.605469 64.820312 0.605469 L 302.300781 0.605469 C 303.511719 0.605469 304.722656 -0.605469 304.722656 -1.816406 C 305.933594 -12.117188 309.570312 -56.339844 314.417969 -93.296875 C 318.65625 -124.191406 345.3125 -313.8125 353.1875 -378.027344 C 353.1875 -379.238281 351.976562 -380.449219 350.765625 -380.449219 Z M 207.1875 -380.449219 "/></g></g></g><g fill="#ffffff" fill-opacity="1"><g transform="translate(4154.798487, 1154.266079)"><g><path d="M 17.570312 -380.449219 C 16.960938 -379.84375 16.355469 -379.238281 15.75 -378.027344 C 15.75 -354.398438 17.570312 -212.035156 18.175781 -164.78125 C 18.78125 -132.671875 20.597656 -23.625 16.355469 -2.421875 C 16.355469 -1.210938 17.570312 0 18.78125 0 L 190.226562 0 C 193.859375 0 196.890625 -3.027344 196.890625 -6.664062 C 194.464844 -35.136719 192.648438 -63.003906 192.042969 -91.476562 C 191.4375 -124.796875 187.800781 -314.417969 192.042969 -373.785156 C 192.042969 -377.421875 189.011719 -380.449219 185.378906 -380.449219 Z M 17.570312 -380.449219 "/></g></g></g><g fill="#ffffff" fill-opacity="1"><g transform="translate(4367.438117, 1154.266079)"><g><path d="M 354.398438 -177.503906 C 354.398438 -191.4375 352.582031 -230.816406 350.160156 -244.75 C 347.738281 -257.46875 337.4375 -313.203125 299.269531 -344.707031 C 262.921875 -373.785156 232.027344 -380.449219 187.195312 -380.449219 C 142.367188 -380.449219 186.589844 -380.449219 186.589844 -380.449219 L 21.808594 -380.449219 C 18.78125 -380.449219 16.355469 -378.632812 16.355469 -375.605469 C 15.75 -368.941406 15.75 -362.882812 15.75 -356.21875 L 15.75 -251.414062 C 16.355469 -216.273438 18.175781 -180.53125 19.386719 -144.789062 C 19.992188 -112.679688 19.992188 -19.386719 18.175781 -5.453125 C 17.570312 -2.421875 19.992188 0 23.019531 0 C 23.019531 0 144.789062 0 145.394531 0 C 156.90625 -0.605469 191.4375 -0.605469 202.945312 -1.210938 C 212.640625 -1.816406 240.507812 -6.058594 265.953125 -16.960938 C 287.15625 -25.445312 311.992188 -44.222656 320.476562 -54.523438 C 338.648438 -76.332031 347.128906 -102.988281 347.128906 -102.988281 C 351.976562 -118.132812 354.398438 -151.453125 354.398438 -177.503906 Z M 197.496094 -153.875 C 193.253906 -133.277344 189.621094 -127.21875 178.109375 -127.21875 C 167.808594 -127.21875 167.808594 -139.335938 167.808594 -154.480469 L 167.808594 -228.996094 C 167.808594 -248.382812 170.839844 -252.019531 178.109375 -252.019531 C 185.378906 -252.019531 194.464844 -246.566406 197.496094 -218.699219 C 199.3125 -203.554688 199.917969 -166.597656 197.496094 -153.875 Z M 197.496094 -153.875 "/></g></g></g><g fill="#ffffff" fill-opacity="1"><g transform="translate(4738.194803, 1154.266079)"><g><path d="M 365.910156 -32.714844 C 351.371094 -92.082031 339.253906 -152.664062 326.53125 -213.246094 C 315.023438 -268.375 304.117188 -324.109375 298.058594 -380.449219 L 79.96875 -380.449219 C 78.753906 -370.152344 78.148438 -360.457031 76.332031 -350.160156 C 68.457031 -289.578125 52.101562 -232.027344 42.40625 -171.445312 C 33.925781 -113.894531 26.65625 -55.734375 13.933594 0.605469 L 161.144531 0.605469 C 161.75 -19.992188 163.570312 -39.984375 165.386719 -60.582031 C 167.203125 -85.417969 168.414062 -96.929688 182.957031 -96.324219 C 202.945312 -95.71875 198.707031 -87.84375 201.734375 -72.699219 C 205.976562 -52.707031 207.792969 -39.378906 209.609375 -15.75 C 210.21875 -10.90625 210.21875 -4.847656 210.21875 0 L 374.996094 0 C 371.96875 -10.90625 368.941406 -21.808594 365.910156 -32.714844 Z M 179.320312 -261.105469 C 179.925781 -267.164062 185.378906 -268.375 187.800781 -265.347656 C 195.675781 -256.257812 196.285156 -238.085938 196.890625 -222.332031 C 198.101562 -207.1875 200.523438 -180.53125 193.859375 -178.714844 C 192.042969 -178.714844 190.832031 -175.078125 189.011719 -175.6875 C 188.40625 -175.6875 188.40625 -175.6875 187.800781 -175.6875 C 164.78125 -176.292969 172.65625 -212.035156 179.320312 -261.105469 Z M 179.320312 -261.105469 "/></g></g></g><g fill="#ffffff" fill-opacity="1"><g transform="translate(5127.125803, 1154.266079)"><g><path d="M 350.765625 -380.449219 L 127.828125 -380.449219 C 109.046875 -380.449219 90.265625 -373.179688 73.910156 -365.304688 C 53.3125 -355.007812 38.773438 -337.4375 29.683594 -316.839844 C 13.328125 -281.097656 8.480469 -239.296875 21.808594 -203.554688 C 29.078125 -185.378906 41.800781 -167.808594 58.15625 -156.90625 C 79.96875 -142.972656 104.804688 -140.546875 130.855469 -141.761719 C 147.210938 -142.367188 196.285156 -149.636719 195.070312 -131.460938 C 194.464844 -122.375 189.011719 -117.527344 181.136719 -115.105469 C 158.722656 -109.652344 90.871094 -108.441406 66.640625 -110.863281 C 61.792969 -110.863281 35.742188 -110.863281 23.019531 -112.074219 C 19.992188 -112.074219 16.960938 -109.652344 16.960938 -106.621094 C 16.960938 -82.390625 18.78125 -58.15625 16.960938 -33.925781 C 15.75 -24.234375 15.144531 -14.539062 15.75 -4.847656 C 15.75 -1.816406 18.175781 0 20.597656 0 C 20.597656 0 211.429688 -0.605469 220.515625 -0.605469 C 232.632812 -1.210938 263.527344 0 289.578125 -7.875 C 310.175781 -14.539062 327.746094 -29.078125 334.410156 -39.378906 C 350.160156 -63.003906 353.792969 -87.238281 353.792969 -98.746094 C 353.792969 -175.6875 328.957031 -194.464844 311.992188 -209.003906 C 291.394531 -226.574219 264.738281 -230.207031 238.085938 -232.027344 C 211.429688 -233.238281 201.734375 -230.207031 179.925781 -233.84375 C 173.867188 -235.054688 162.964844 -236.265625 162.964844 -250.804688 C 162.964844 -265.953125 188.40625 -267.769531 218.699219 -268.375 C 239.296875 -268.980469 308.359375 -264.132812 348.949219 -262.921875 C 351.976562 -262.316406 354.398438 -265.347656 354.398438 -268.375 C 353.792969 -278.066406 351.371094 -301.089844 351.371094 -310.78125 C 351.976562 -350.160156 353.792969 -353.792969 352.582031 -379.238281 C 351.976562 -379.84375 351.371094 -379.84375 350.765625 -380.449219 Z M 350.765625 -380.449219 "/></g></g></g><g fill="#ffffff" fill-opacity="1"><g transform="translate(5498.488197, 1154.266079)"><g/></g></g><g fill="#ffffff" fill-opacity="1"><g transform="translate(5607.534086, 1154.266079)"><g><path d="M 268.980469 -380.449219 L 15.75 -380.449219 C 15.144531 -380.449219 14.539062 -379.84375 14.539062 -378.632812 C 13.933594 -366.515625 14.539062 -354.398438 15.144531 -342.285156 C 16.355469 -328.351562 18.175781 -252.625 18.175781 -248.988281 C 18.175781 -248.382812 18.78125 -247.777344 19.386719 -247.777344 C 66.640625 -248.988281 179.320312 -251.414062 184.167969 -251.414062 C 194.464844 -252.019531 204.765625 -250.199219 208.398438 -237.476562 C 212.035156 -225.96875 205.976562 -215.667969 197.496094 -213.851562 C 178.109375 -208.398438 47.859375 -209.003906 19.992188 -207.792969 C 19.386719 -207.792969 18.78125 -207.1875 18.78125 -205.976562 C 19.386719 -179.320312 20.597656 -152.664062 19.992188 -126.613281 L 19.992188 -126.007812 C 19.992188 -124.796875 20.597656 -124.191406 21.203125 -124.191406 C 49.675781 -124.796875 213.851562 -121.769531 239.296875 -124.191406 C 262.316406 -126.007812 289.578125 -132.066406 310.78125 -146 C 338.042969 -163.570312 347.128906 -187.800781 350.160156 -198.707031 C 352.582031 -208.398438 353.792969 -218.09375 354.398438 -227.785156 L 354.398438 -279.28125 C 353.792969 -285.945312 353.1875 -322.898438 336.226562 -347.738281 C 320.476562 -369.546875 289.578125 -380.449219 268.980469 -380.449219 Z M 170.839844 -96.324219 C 171.445312 -97.535156 170.234375 -98.140625 169.628906 -98.140625 C 148.425781 -96.929688 49.675781 -97.535156 20.597656 -99.351562 C 19.992188 -99.351562 19.386719 -98.746094 19.386719 -98.140625 C 19.386719 -91.476562 19.992188 -63.003906 19.386719 -55.734375 C 18.78125 -43.011719 19.386719 -6.058594 19.386719 -0.605469 C 19.386719 0 19.992188 0.605469 21.203125 0.605469 L 171.445312 0.605469 C 172.65625 0.605469 173.261719 0 173.261719 -1.210938 C 170.234375 -16.960938 169.628906 -80.574219 170.839844 -96.324219 Z M 170.839844 -96.324219 "/></g></g></g><g fill="#ffffff" fill-opacity="1"><g transform="translate(5978.28013, 1154.266079)"><g/></g></g><g fill="#ffffff" fill-opacity="1"><g transform="translate(172.800169, 571.144872)"><g><path d="M 90.59375 -55.015625 L 36.375 -55.015625 L 36.375 0 L 14.90625 0 L 14.90625 -129.203125 L 98.59375 -129.203125 L 98.59375 -111.625 L 36.375 -111.625 L 36.375 -72.5 L 90.59375 -72.5 Z M 90.59375 -55.015625 "/></g></g></g><g fill="#ffffff" fill-opacity="1"><g transform="translate(281.858532, 571.144872)"><g><path d="M 74.984375 0 C 74.390625 -1.1875 73.898438 -2.578125 73.515625 -4.171875 C 73.128906 -5.765625 72.789062 -7.476562 72.5 -9.3125 C 71.019531 -7.78125 69.347656 -6.347656 67.484375 -5.015625 C 65.617188 -3.679688 63.546875 -2.507812 61.265625 -1.5 C 58.992188 -0.5 56.539062 0.296875 53.90625 0.890625 C 51.269531 1.484375 48.445312 1.78125 45.4375 1.78125 C 40.34375 1.78125 35.738281 1.054688 31.625 -0.390625 C 27.519531 -1.847656 24.003906 -3.863281 21.078125 -6.4375 C 18.148438 -9.007812 15.882812 -12.039062 14.28125 -15.53125 C 12.6875 -19.019531 11.890625 -22.804688 11.890625 -26.890625 C 11.890625 -37.179688 15.71875 -45.046875 23.375 -50.484375 C 31.039062 -55.929688 42.03125 -58.65625 56.34375 -58.65625 L 71.875 -58.65625 L 71.875 -64.953125 C 71.875 -70.046875 70.15625 -74.082031 66.71875 -77.0625 C 63.289062 -80.050781 58.441406 -81.546875 52.171875 -81.546875 C 49.335938 -81.546875 46.851562 -81.207031 44.71875 -80.53125 C 42.59375 -79.851562 40.816406 -78.921875 39.390625 -77.734375 C 37.972656 -76.546875 36.910156 -75.15625 36.203125 -73.5625 C 35.492188 -71.96875 35.140625 -70.253906 35.140625 -68.421875 L 13.9375 -68.421875 C 13.9375 -72.140625 14.804688 -75.757812 16.546875 -79.28125 C 18.296875 -82.800781 20.851562 -85.9375 24.21875 -88.6875 C 27.59375 -91.4375 31.71875 -93.640625 36.59375 -95.296875 C 41.476562 -96.953125 47.054688 -97.78125 53.328125 -97.78125 C 59.003906 -97.78125 64.269531 -97.085938 69.125 -95.703125 C 73.976562 -94.316406 78.175781 -92.242188 81.71875 -89.484375 C 85.269531 -86.734375 88.050781 -83.300781 90.0625 -79.1875 C 92.070312 -75.082031 93.078125 -70.28125 93.078125 -64.78125 L 93.078125 -22 C 93.078125 -17.800781 93.390625 -13.972656 94.015625 -10.515625 C 94.640625 -7.054688 95.539062 -4.054688 96.71875 -1.515625 L 96.71875 0 Z M 49.421875 -15.359375 C 52.148438 -15.359375 54.710938 -15.695312 57.109375 -16.375 C 59.503906 -17.050781 61.660156 -17.9375 63.578125 -19.03125 C 65.503906 -20.125 67.160156 -21.378906 68.546875 -22.796875 C 69.941406 -24.222656 71.050781 -25.675781 71.875 -27.15625 L 71.875 -45.171875 L 58.390625 -45.171875 C 49.753906 -45.171875 43.378906 -43.78125 39.265625 -41 C 35.148438 -38.21875 33.09375 -34.253906 33.09375 -29.109375 C 33.09375 -27.148438 33.414062 -25.328125 34.0625 -23.640625 C 34.71875 -21.960938 35.710938 -20.515625 37.046875 -19.296875 C 38.378906 -18.085938 40.066406 -17.128906 42.109375 -16.421875 C 44.148438 -15.710938 46.585938 -15.359375 49.421875 -15.359375 Z M 49.421875 -15.359375 "/></g></g></g><g fill="#ffffff" fill-opacity="1"><g transform="translate(390.916895, 571.144872)"><g><path d="M 17.65625 -136.296875 L 69.5625 -136.296875 L 69.5625 -17.5625 L 98.859375 -17.5625 L 98.859375 0 L 17.65625 0 L 17.65625 -17.5625 L 48.1875 -17.5625 L 48.1875 -118.640625 L 17.65625 -118.640625 Z M 17.65625 -136.296875 "/></g></g></g><g fill="#ffffff" fill-opacity="1"><g transform="translate(499.975258, 571.144872)"><g><path d="M 58.484375 1.78125 C 51.378906 1.78125 44.898438 0.597656 39.046875 -1.765625 C 33.191406 -4.140625 28.175781 -7.394531 24 -11.53125 C 19.832031 -15.675781 16.59375 -20.570312 14.28125 -26.21875 C 11.976562 -31.875 10.828125 -37.984375 10.828125 -44.546875 L 10.828125 -48.1875 C 10.828125 -55.8125 12.050781 -62.671875 14.5 -68.765625 C 16.957031 -74.859375 20.242188 -80.066406 24.359375 -84.390625 C 28.472656 -88.710938 33.265625 -92.023438 38.734375 -94.328125 C 44.203125 -96.628906 49.957031 -97.78125 56 -97.78125 C 62.976562 -97.78125 69.128906 -96.613281 74.453125 -94.28125 C 79.773438 -91.945312 84.222656 -88.664062 87.796875 -84.4375 C 91.378906 -80.207031 94.085938 -75.191406 95.921875 -69.390625 C 97.753906 -63.597656 98.671875 -57.238281 98.671875 -50.3125 L 98.671875 -41.359375 L 32.125 -41.359375 C 32.476562 -37.628906 33.394531 -34.164062 34.875 -30.96875 C 36.351562 -27.769531 38.289062 -25.003906 40.6875 -22.671875 C 43.082031 -20.335938 45.890625 -18.503906 49.109375 -17.171875 C 52.335938 -15.835938 55.875 -15.171875 59.71875 -15.171875 C 65.101562 -15.171875 70.054688 -16.234375 74.578125 -18.359375 C 79.109375 -20.492188 82.789062 -23.425781 85.625 -27.15625 L 97.171875 -16.328125 C 95.628906 -14.015625 93.644531 -11.78125 91.21875 -9.625 C 88.789062 -7.46875 85.953125 -5.546875 82.703125 -3.859375 C 79.453125 -2.171875 75.800781 -0.8125 71.75 0.21875 C 67.695312 1.257812 63.273438 1.78125 58.484375 1.78125 Z M 55.90625 -80.65625 C 52.945312 -80.65625 50.195312 -80.125 47.65625 -79.0625 C 45.113281 -78 42.832031 -76.445312 40.8125 -74.40625 C 38.800781 -72.363281 37.097656 -69.878906 35.703125 -66.953125 C 34.316406 -64.023438 33.332031 -60.695312 32.75 -56.96875 L 77.734375 -56.96875 L 77.734375 -58.5625 C 77.554688 -61.40625 77.007812 -64.140625 76.09375 -66.765625 C 75.175781 -69.398438 73.828125 -71.753906 72.046875 -73.828125 C 70.273438 -75.898438 68.039062 -77.554688 65.34375 -78.796875 C 62.65625 -80.035156 59.507812 -80.65625 55.90625 -80.65625 Z M 55.90625 -80.65625 "/></g></g></g><g fill="#ffffff" fill-opacity="1"><g transform="translate(609.033621, 571.144872)"><g/></g></g><g fill="#ffffff" fill-opacity="1"><g transform="translate(718.091962, 571.144872)"><g><path d="M 55.734375 -15.078125 C 58.328125 -15.078125 60.851562 -15.488281 63.3125 -16.3125 C 65.769531 -17.144531 67.941406 -18.300781 69.828125 -19.78125 C 71.722656 -21.257812 73.21875 -23.003906 74.3125 -25.015625 C 75.40625 -27.035156 75.925781 -29.226562 75.875 -31.59375 L 95.921875 -31.59375 C 95.984375 -26.976562 94.929688 -22.644531 92.765625 -18.59375 C 90.609375 -14.539062 87.679688 -11.003906 83.984375 -7.984375 C 80.285156 -4.960938 76.007812 -2.566406 71.15625 -0.796875 C 66.3125 0.972656 61.226562 1.859375 55.90625 1.859375 C 48.507812 1.859375 42.03125 0.585938 36.46875 -1.953125 C 30.90625 -4.492188 26.257812 -7.96875 22.53125 -12.375 C 18.8125 -16.78125 16.019531 -21.894531 14.15625 -27.71875 C 12.289062 -33.550781 11.359375 -39.753906 11.359375 -46.328125 L 11.359375 -49.515625 C 11.359375 -56.078125 12.289062 -62.285156 14.15625 -68.140625 C 16.019531 -74.003906 18.8125 -79.125 22.53125 -83.5 C 26.257812 -87.875 30.90625 -91.347656 36.46875 -93.921875 C 42.03125 -96.492188 48.476562 -97.78125 55.8125 -97.78125 C 61.613281 -97.78125 66.984375 -96.894531 71.921875 -95.125 C 76.859375 -93.351562 81.113281 -90.867188 84.6875 -87.671875 C 88.269531 -84.472656 91.050781 -80.65625 93.03125 -76.21875 C 95.019531 -71.78125 95.984375 -66.929688 95.921875 -61.671875 L 75.875 -61.671875 C 75.925781 -64.273438 75.460938 -66.726562 74.484375 -69.03125 C 73.515625 -71.34375 72.113281 -73.351562 70.28125 -75.0625 C 68.445312 -76.78125 66.285156 -78.140625 63.796875 -79.140625 C 61.316406 -80.148438 58.597656 -80.65625 55.640625 -80.65625 C 51.203125 -80.65625 47.503906 -79.753906 44.546875 -77.953125 C 41.585938 -76.148438 39.21875 -73.785156 37.4375 -70.859375 C 35.664062 -67.929688 34.410156 -64.601562 33.671875 -60.875 C 32.929688 -57.144531 32.5625 -53.359375 32.5625 -49.515625 L 32.5625 -46.328125 C 32.5625 -42.421875 32.929688 -38.601562 33.671875 -34.875 C 34.410156 -31.144531 35.664062 -27.816406 37.4375 -24.890625 C 39.21875 -21.960938 41.585938 -19.59375 44.546875 -17.78125 C 47.503906 -15.976562 51.234375 -15.078125 55.734375 -15.078125 Z M 55.734375 -15.078125 "/></g></g></g><g fill="#ffffff" fill-opacity="1"><g transform="translate(827.150302, 571.144872)"><g><path d="M 9.84375 -48.890625 C 9.84375 -55.816406 10.863281 -62.265625 12.90625 -68.234375 C 14.945312 -74.210938 17.875 -79.390625 21.6875 -83.765625 C 25.507812 -88.140625 30.171875 -91.566406 35.671875 -94.046875 C 41.171875 -96.535156 47.410156 -97.78125 54.390625 -97.78125 C 61.429688 -97.78125 67.71875 -96.535156 73.25 -94.046875 C 78.78125 -91.566406 83.453125 -88.140625 87.265625 -83.765625 C 91.085938 -79.390625 94.003906 -74.210938 96.015625 -68.234375 C 98.023438 -62.265625 99.03125 -55.816406 99.03125 -48.890625 L 99.03125 -47.03125 C 99.03125 -40.050781 98.023438 -33.570312 96.015625 -27.59375 C 94.003906 -21.625 91.085938 -16.460938 87.265625 -12.109375 C 83.453125 -7.765625 78.796875 -4.347656 73.296875 -1.859375 C 67.796875 0.617188 61.554688 1.859375 54.578125 1.859375 C 47.535156 1.859375 41.25 0.617188 35.71875 -1.859375 C 30.1875 -4.347656 25.507812 -7.765625 21.6875 -12.109375 C 17.875 -16.460938 14.945312 -21.625 12.90625 -27.59375 C 10.863281 -33.570312 9.84375 -40.050781 9.84375 -47.03125 Z M 31.0625 -47.03125 C 31.0625 -42.65625 31.519531 -38.539062 32.4375 -34.6875 C 33.351562 -30.84375 34.769531 -27.457031 36.6875 -24.53125 C 38.613281 -21.601562 41.054688 -19.296875 44.015625 -17.609375 C 46.972656 -15.921875 50.492188 -15.078125 54.578125 -15.078125 C 58.535156 -15.078125 61.976562 -15.921875 64.90625 -17.609375 C 67.832031 -19.296875 70.257812 -21.601562 72.1875 -24.53125 C 74.113281 -27.457031 75.535156 -30.84375 76.453125 -34.6875 C 77.367188 -38.539062 77.828125 -42.65625 77.828125 -47.03125 L 77.828125 -48.890625 C 77.828125 -53.148438 77.367188 -57.203125 76.453125 -61.046875 C 75.535156 -64.890625 74.113281 -68.257812 72.1875 -71.15625 C 70.257812 -74.0625 67.832031 -76.367188 64.90625 -78.078125 C 61.976562 -79.796875 58.472656 -80.65625 54.390625 -80.65625 C 50.367188 -80.65625 46.878906 -79.796875 43.921875 -78.078125 C 40.960938 -76.367188 38.535156 -74.0625 36.640625 -71.15625 C 34.753906 -68.257812 33.351562 -64.890625 32.4375 -61.046875 C 31.519531 -57.203125 31.0625 -53.148438 31.0625 -48.890625 Z M 31.0625 -47.03125 "/></g></g></g><g fill="#ffffff" fill-opacity="1"><g transform="translate(936.208643, 571.144872)"><g><path d="M 26 -96.015625 L 26.53125 -85.890625 C 28.425781 -89.617188 30.96875 -92.53125 34.15625 -94.625 C 37.351562 -96.726562 41.203125 -97.78125 45.703125 -97.78125 C 49.785156 -97.78125 53.171875 -96.96875 55.859375 -95.34375 C 58.546875 -93.71875 60.570312 -91.191406 61.9375 -87.765625 C 63.832031 -90.835938 66.257812 -93.273438 69.21875 -95.078125 C 72.175781 -96.878906 75.753906 -97.78125 79.953125 -97.78125 C 83.085938 -97.78125 85.96875 -97.265625 88.59375 -96.234375 C 91.226562 -95.203125 93.476562 -93.5625 95.34375 -91.3125 C 97.207031 -89.0625 98.65625 -86.191406 99.6875 -82.703125 C 100.726562 -79.210938 101.25 -75.015625 101.25 -70.109375 L 101.25 0 L 81.546875 0 L 81.546875 -70.28125 C 81.546875 -74.125 80.734375 -76.769531 79.109375 -78.21875 C 77.484375 -79.664062 75.398438 -80.390625 72.859375 -80.390625 C 70.429688 -80.390625 68.503906 -79.8125 67.078125 -78.65625 C 65.660156 -77.507812 64.628906 -75.988281 63.984375 -74.09375 L 63.984375 0 L 44.71875 0 L 44.71875 -70.28125 C 44.71875 -74.007812 43.960938 -76.625 42.453125 -78.125 C 40.953125 -79.632812 38.898438 -80.390625 36.296875 -80.390625 C 33.804688 -80.390625 31.851562 -79.859375 30.4375 -78.796875 C 29.019531 -77.734375 27.925781 -76.285156 27.15625 -74.453125 L 27.15625 0 L 7.453125 0 L 7.453125 -96.015625 Z M 26 -96.015625 "/></g></g></g><g fill="#ffffff" fill-opacity="1"><g transform="translate(1045.266984, 571.144872)"><g><path d="M 18.375 -96.015625 L 69.5625 -96.015625 L 69.5625 -17.5625 L 98.0625 -17.5625 L 98.0625 0 L 18.375 0 L 18.375 -17.5625 L 48.1875 -17.5625 L 48.1875 -78.359375 L 18.375 -78.359375 Z M 46.40625 -120.859375 C 46.40625 -124.171875 47.46875 -126.90625 49.59375 -129.0625 C 51.726562 -131.226562 54.71875 -132.3125 58.5625 -132.3125 C 62.46875 -132.3125 65.5 -131.226562 67.65625 -129.0625 C 69.820312 -126.90625 70.90625 -124.171875 70.90625 -120.859375 C 70.90625 -117.546875 69.820312 -114.804688 67.65625 -112.640625 C 65.5 -110.484375 62.46875 -109.40625 58.5625 -109.40625 C 54.71875 -109.40625 51.726562 -110.484375 49.59375 -112.640625 C 47.46875 -114.804688 46.40625 -117.546875 46.40625 -120.859375 Z M 46.40625 -120.859375 "/></g></g></g><g fill="#ffffff" fill-opacity="1"><g transform="translate(1154.325324, 571.144872)"><g><path d="M 11 -48.71875 C 11 -55.988281 11.898438 -62.640625 13.703125 -68.671875 C 15.515625 -74.710938 18.101562 -79.890625 21.46875 -84.203125 C 24.84375 -88.523438 28.910156 -91.867188 33.671875 -94.234375 C 38.429688 -96.597656 43.769531 -97.78125 49.6875 -97.78125 C 55.425781 -97.78125 60.394531 -96.804688 64.59375 -94.859375 C 68.800781 -92.910156 72.410156 -90.101562 75.421875 -86.4375 L 76.3125 -96.015625 L 95.5625 -96.015625 L 95.5625 -2.578125 C 95.5625 3.867188 94.5 9.59375 92.375 14.59375 C 90.25 19.59375 87.273438 23.804688 83.453125 27.234375 C 79.640625 30.671875 75.070312 33.289062 69.75 35.09375 C 64.425781 36.894531 58.566406 37.796875 52.171875 37.796875 C 49.566406 37.796875 46.625 37.515625 43.34375 36.953125 C 40.0625 36.390625 36.765625 35.472656 33.453125 34.203125 C 30.140625 32.929688 26.972656 31.273438 23.953125 29.234375 C 20.941406 27.191406 18.367188 24.722656 16.234375 21.828125 L 26.359375 9.140625 C 29.960938 13.398438 33.847656 16.445312 38.015625 18.28125 C 42.191406 20.113281 46.5 21.03125 50.9375 21.03125 C 54.488281 21.03125 57.710938 20.523438 60.609375 19.515625 C 63.503906 18.515625 65.957031 17.035156 67.96875 15.078125 C 69.976562 13.128906 71.53125 10.71875 72.625 7.84375 C 73.71875 4.976562 74.265625 1.679688 74.265625 -2.046875 L 74.265625 -8.515625 C 71.253906 -5.203125 67.722656 -2.65625 63.671875 -0.875 C 59.617188 0.894531 54.898438 1.78125 49.515625 1.78125 C 43.660156 1.78125 38.363281 0.550781 33.625 -1.90625 C 28.894531 -4.363281 24.84375 -7.75 21.46875 -12.0625 C 18.101562 -16.382812 15.515625 -21.515625 13.703125 -27.453125 C 11.898438 -33.398438 11 -39.867188 11 -46.859375 Z M 32.296875 -46.859375 C 32.296875 -42.535156 32.738281 -38.476562 33.625 -34.6875 C 34.519531 -30.90625 35.882812 -27.59375 37.71875 -24.75 C 39.550781 -21.914062 41.898438 -19.6875 44.765625 -18.0625 C 47.640625 -16.4375 51.023438 -15.625 54.921875 -15.625 C 59.835938 -15.625 63.832031 -16.640625 66.90625 -18.671875 C 69.976562 -20.710938 72.429688 -23.453125 74.265625 -26.890625 L 74.265625 -69.296875 C 72.378906 -72.671875 69.894531 -75.363281 66.8125 -77.375 C 63.738281 -79.382812 59.835938 -80.390625 55.109375 -80.390625 C 51.203125 -80.390625 47.8125 -79.5625 44.9375 -77.90625 C 42.070312 -76.25 39.707031 -73.972656 37.84375 -71.078125 C 35.976562 -68.179688 34.585938 -64.804688 33.671875 -60.953125 C 32.753906 -57.109375 32.296875 -53.03125 32.296875 -48.71875 Z M 32.296875 -46.859375 "/></g></g></g><g fill="#ffffff" fill-opacity="1"><g transform="translate(1263.383665, 571.144872)"><g><path d="M 9.84375 -48.890625 C 9.84375 -55.816406 10.863281 -62.265625 12.90625 -68.234375 C 14.945312 -74.210938 17.875 -79.390625 21.6875 -83.765625 C 25.507812 -88.140625 30.171875 -91.566406 35.671875 -94.046875 C 41.171875 -96.535156 47.410156 -97.78125 54.390625 -97.78125 C 61.429688 -97.78125 67.71875 -96.535156 73.25 -94.046875 C 78.78125 -91.566406 83.453125 -88.140625 87.265625 -83.765625 C 91.085938 -79.390625 94.003906 -74.210938 96.015625 -68.234375 C 98.023438 -62.265625 99.03125 -55.816406 99.03125 -48.890625 L 99.03125 -47.03125 C 99.03125 -40.050781 98.023438 -33.570312 96.015625 -27.59375 C 94.003906 -21.625 91.085938 -16.460938 87.265625 -12.109375 C 83.453125 -7.765625 78.796875 -4.347656 73.296875 -1.859375 C 67.796875 0.617188 61.554688 1.859375 54.578125 1.859375 C 47.535156 1.859375 41.25 0.617188 35.71875 -1.859375 C 30.1875 -4.347656 25.507812 -7.765625 21.6875 -12.109375 C 17.875 -16.460938 14.945312 -21.625 12.90625 -27.59375 C 10.863281 -33.570312 9.84375 -40.050781 9.84375 -47.03125 Z M 31.0625 -47.03125 C 31.0625 -42.65625 31.519531 -38.539062 32.4375 -34.6875 C 33.351562 -30.84375 34.769531 -27.457031 36.6875 -24.53125 C 38.613281 -21.601562 41.054688 -19.296875 44.015625 -17.609375 C 46.972656 -15.921875 50.492188 -15.078125 54.578125 -15.078125 C 58.535156 -15.078125 61.976562 -15.921875 64.90625 -17.609375 C 67.832031 -19.296875 70.257812 -21.601562 72.1875 -24.53125 C 74.113281 -27.457031 75.535156 -30.84375 76.453125 -34.6875 C 77.367188 -38.539062 77.828125 -42.65625 77.828125 -47.03125 L 77.828125 -48.890625 C 77.828125 -53.148438 77.367188 -57.203125 76.453125 -61.046875 C 75.535156 -64.890625 74.113281 -68.257812 72.1875 -71.15625 C 70.257812 -74.0625 67.832031 -76.367188 64.90625 -78.078125 C 61.976562 -79.796875 58.472656 -80.65625 54.390625 -80.65625 C 50.367188 -80.65625 46.878906 -79.796875 43.921875 -78.078125 C 40.960938 -76.367188 38.535156 -74.0625 36.640625 -71.15625 C 34.753906 -68.257812 33.351562 -64.890625 32.4375 -61.046875 C 31.519531 -57.203125 31.0625 -53.148438 31.0625 -48.890625 Z M 31.0625 -47.03125 "/></g></g></g><path stroke-linecap="butt" transform="matrix(0.531294, 0, 0, 0.53134, 6663.617383, -25.766204)" fill-opacity="1" fill="#f4ede4" fill-rule="nonzero" stroke-linejoin="miter" d="M 3420.798098 1766.996857 C 3407.703591 2664.102738 3037.40328 3138.500579 1940.096813 2999.303494 C 1176.601023 3131.097417 530.801398 2591.79877 580.503177 1893.497557 C 471.203378 791.698297 1333.80128 817.502764 1889.402469 695.6998 C 3327.401397 380.297172 3430.297314 1117.297733 3420.798098 1766.996857 Z M 3420.798098 1766.996857 " stroke="#ffffff" stroke-width="1.029" stroke-opacity="1" stroke-miterlimit="10"/><path fill="#3c3c3c" d="M 8312.117188 223.75 C 8166.488281 208.023438 8038.285156 288.628906 8025.855469 403.820312 C 8019.90625 459.027344 8041.582031 512.164062 8081.800781 554.246094 L 8082.117188 600.152344 C 8082.117188 603.339844 8084.667969 605.890625 8087.75 605.835938 L 8149.007812 604.878906 C 8183.542969 623.476562 8223.601562 636.230469 8267.0625 640.957031 C 8412.691406 656.738281 8540.890625 576.082031 8553.375 460.886719 C 8565.753906 345.695312 8457.796875 239.53125 8312.117188 223.75 Z M 8312.117188 223.75 " fill-opacity="1" fill-rule="nonzero"/><path fill="#f9f7f7" d="M 8292.511719 200 C 8146.882812 184.21875 8018.683594 264.875 8006.195312 380.070312 C 8000.246094 435.277344 8021.921875 488.410156 8062.140625 530.492188 L 8062.460938 576.402344 C 8062.460938 579.589844 8065.011719 582.140625 8068.09375 582.085938 L 8129.351562 581.128906 C 8163.886719 599.726562 8203.945312 612.480469 8247.40625 617.207031 C 8393.03125 632.988281 8521.234375 552.332031 8533.71875 437.136719 C 8546.152344 321.941406 8438.191406 215.78125 8292.511719 200 Z M 8292.511719 200 " fill-opacity="1" fill-rule="nonzero"/><path fill="#000000" d="M 8205.378906 332.996094 C 8207.132812 323.324219 8212.074219 314.078125 8220.097656 305.3125 C 8228.117188 296.542969 8238.691406 289.957031 8251.8125 285.652344 C 8264.9375 281.296875 8279.386719 280.605469 8295.273438 283.527344 C 8310.042969 286.238281 8322.582031 291.335938 8332.890625 298.882812 C 8343.195312 306.375 8350.582031 315.40625 8354.992188 325.875 C 8359.453125 336.394531 8360.625 347.128906 8358.65625 358.125 C 8357.0625 366.789062 8353.929688 374.066406 8349.199219 379.910156 C 8344.472656 385.808594 8339.265625 390.644531 8333.582031 394.46875 C 8327.894531 398.296875 8317.746094 404.671875 8303.191406 413.597656 C 8299.152344 416.097656 8295.859375 418.378906 8293.359375 420.398438 C 8290.8125 422.417969 8288.898438 424.332031 8287.515625 426.136719 C 8286.136719 427.945312 8284.96875 429.75 8284.0625 431.664062 C 8283.160156 433.523438 8281.671875 436.871094 8279.652344 441.652344 C 8275.777344 451.910156 8268.761719 456.050781 8258.5625 454.191406 C 8253.25 453.238281 8249.105469 450.6875 8246.128906 446.542969 C 8243.152344 442.398438 8242.304688 436.925781 8243.527344 430.125 C 8245.066406 421.570312 8247.777344 414.394531 8251.546875 408.65625 C 8255.320312 402.867188 8259.835938 398.03125 8265.097656 394.097656 C 8270.355469 390.167969 8277.261719 385.648438 8285.921875 380.496094 C 8293.46875 375.980469 8298.992188 372.527344 8302.394531 370.1875 C 8305.847656 367.796875 8308.875 365.035156 8311.480469 361.847656 C 8314.136719 358.65625 8315.835938 354.9375 8316.578125 350.792969 C 8318.066406 342.664062 8316.3125 335.226562 8311.265625 328.53125 C 8306.21875 321.835938 8298.941406 317.585938 8289.375 315.832031 C 8278.167969 313.761719 8269.398438 315.089844 8263.078125 319.765625 C 8256.753906 324.441406 8250.75 331.933594 8245.066406 342.292969 C 8239.488281 353.183594 8231.890625 357.703125 8222.222656 355.949219 C 8216.535156 354.886719 8212.074219 352.015625 8208.886719 347.289062 C 8205.699219 342.347656 8204.527344 337.671875 8205.378906 332.996094 Z M 8249.210938 514.023438 C 8242.996094 512.90625 8237.949219 509.878906 8234.070312 504.988281 C 8230.191406 500.101562 8228.914062 494.097656 8230.191406 486.816406 C 8231.359375 480.386719 8234.601562 475.394531 8239.859375 471.886719 C 8245.121094 468.328125 8251.015625 467.15625 8257.550781 468.328125 C 8263.980469 469.496094 8268.976562 472.683594 8272.535156 477.835938 C 8276.09375 482.992188 8277.316406 488.835938 8276.148438 495.210938 C 8274.820312 502.332031 8271.523438 507.539062 8266.210938 510.726562 C 8260.898438 514.023438 8255.214844 515.085938 8249.210938 514.023438 Z M 8249.210938 514.023438 " fill-opacity="1" fill-rule="nonzero"/><path fill="#3c3c3c" d="M 7055.179688 640.800781 C 7186.304688 626.613281 7302.125 702.859375 7313.816406 811.09375 C 7319.445312 862.953125 7300.109375 912.738281 7264.03125 952.113281 L 7263.925781 995.257812 C 7263.925781 998.230469 7261.695312 1000.621094 7258.878906 1000.570312 L 7203.675781 999.402344 C 7172.648438 1016.722656 7136.574219 1028.519531 7097.523438 1032.769531 C 6966.453125 1046.957031 6850.632812 970.707031 6838.945312 862.472656 C 6827.257812 754.242188 6924.058594 654.984375 7055.179688 640.800781 Z M 7055.179688 640.800781 " fill-opacity="1" fill-rule="nonzero"/><path fill="#f9f7f7" d="M 7065.859375 608.015625 C 7199.160156 589.578125 7319.554688 664.179688 7334.855469 774.589844 C 7342.1875 827.511719 7324.015625 879.050781 7288.472656 920.445312 L 7289.695312 964.597656 C 7289.800781 967.679688 7287.570312 970.175781 7284.753906 970.175781 L 7228.4375 970.601562 C 7197.355469 989.253906 7160.960938 1002.429688 7121.222656 1007.902344 C 6987.917969 1026.339844 6867.527344 951.738281 6852.226562 841.328125 C 6836.871094 730.96875 6932.558594 626.453125 7065.859375 608.015625 Z M 7065.859375 608.015625 " fill-opacity="1" fill-rule="nonzero"/><path fill="#000000" d="M 7017.882812 750.363281 C 7017.671875 741.117188 7020.433594 731.660156 7026.121094 721.988281 C 7031.855469 712.316406 7040.304688 704.242188 7051.566406 697.757812 C 7062.832031 691.222656 7076.0625 687.824219 7091.253906 687.449219 C 7105.386719 687.132812 7117.925781 689.417969 7128.871094 694.359375 C 7139.816406 699.300781 7148.316406 706.207031 7154.425781 715.027344 C 7160.535156 723.847656 7163.722656 733.519531 7163.988281 744.039062 C 7164.203125 752.328125 7162.660156 759.605469 7159.472656 765.929688 C 7156.285156 772.253906 7152.40625 777.726562 7147.890625 782.347656 C 7143.375 786.972656 7135.246094 794.835938 7123.503906 805.832031 C 7120.265625 808.914062 7117.660156 811.679688 7115.75 814.015625 C 7113.78125 816.355469 7112.347656 818.480469 7111.445312 820.390625 C 7110.488281 822.304688 7109.796875 824.21875 7109.320312 826.128906 C 7108.839844 828.042969 7108.097656 831.390625 7107.140625 836.226562 C 7105.546875 846.429688 7099.863281 851.636719 7090.085938 851.847656 C 7085.039062 851.953125 7080.734375 850.414062 7077.175781 847.171875 C 7073.617188 843.929688 7071.808594 839.042969 7071.652344 832.507812 C 7071.4375 824.324219 7072.554688 817.203125 7074.945312 811.148438 C 7077.335938 805.089844 7080.578125 799.722656 7084.667969 795.101562 C 7088.757812 790.476562 7094.285156 784.953125 7101.246094 778.523438 C 7107.355469 772.890625 7111.765625 768.691406 7114.472656 765.824219 C 7117.183594 762.953125 7119.46875 759.820312 7121.273438 756.367188 C 7123.082031 752.914062 7123.929688 749.191406 7123.878906 745.207031 C 7123.664062 737.398438 7120.636719 730.914062 7114.6875 725.65625 C 7108.734375 720.445312 7101.191406 717.949219 7092.054688 718.164062 C 7081.320312 718.429688 7073.511719 721.296875 7068.570312 726.824219 C 7063.628906 732.347656 7059.539062 740.425781 7056.296875 751.050781 C 7053.269531 762.15625 7047.105469 767.789062 7037.808594 768.003906 C 7032.335938 768.109375 7027.714844 766.300781 7023.835938 762.582031 C 7019.957031 758.96875 7017.992188 754.824219 7017.882812 750.363281 Z M 7093.0625 908.859375 C 7087.113281 909.019531 7081.90625 907.214844 7077.335938 903.441406 C 7072.820312 899.722656 7070.480469 894.355469 7070.324219 887.449219 C 7070.164062 881.285156 7072.183594 876.078125 7076.378906 871.773438 C 7080.578125 867.46875 7085.785156 865.238281 7092 865.132812 C 7098.164062 864.972656 7103.371094 866.9375 7107.621094 871.027344 C 7111.921875 875.121094 7114.15625 880.222656 7114.261719 886.382812 C 7114.421875 893.1875 7112.347656 898.605469 7108.042969 902.644531 C 7103.792969 906.683594 7098.800781 908.753906 7093.0625 908.859375 Z M 7093.0625 908.859375 " fill-opacity="1" fill-rule="nonzero"/><path fill="#362c25" d="M 7517.992188 594.199219 C 7550.132812 496.539062 7588.175781 408.605469 7707.449219 398.878906 C 7764.140625 394.257812 7804.253906 396.382812 7839.847656 418.859375 C 7896.273438 454.566406 7900.308594 480.917969 7928.46875 539.152344 C 7960.878906 606.210938 7971.820312 617.898438 7988.984375 689.097656 C 8006.992188 764.125 8071.121094 776.238281 8077.070312 871.292969 C 8079.835938 915.820312 8056.136719 962.632812 8084.5625 997.648438 C 8252.34375 1246.472656 8084.085938 1325.75 7862.589844 1371.605469 C 7642.84375 1433.132812 7315.832031 1367.9375 7314.984375 1154.339844 C 7314.503906 1039.25 7429.957031 991.484375 7409.074219 919.914062 C 7369.175781 809.339844 7486.007812 692.976562 7517.992188 594.199219 Z M 7517.992188 594.199219 " fill-opacity="1" fill-rule="nonzero"/><g clip-path="url(#id2)"><path fill="#e8ab23" d="M 7469.855469 1727.65625 C 7478.355469 1412.199219 7450.515625 1646.464844 7371.621094 1445.035156 C 7346.859375 1345.886719 7301.703125 999.984375 7493.339844 979.421875 C 7534.140625 967.785156 7598.429688 960.027344 7633.652344 935.054688 C 7681.84375 943.292969 7703.679688 1021.132812 7773.96875 967.734375 C 7847.128906 927.667969 7814.453125 935.054688 7916.195312 947.0625 C 8175.042969 977.5625 8095.5625 1250.9375 8058.953125 1379.042969 C 8043.441406 1433.292969 8027.5 1413.84375 8029.46875 1464.164062 C 8031.167969 1506.882812 8032.390625 1666.921875 8029.894531 1727.707031 " fill-opacity="1" fill-rule="nonzero"/></g><path fill="#f4d3b9" d="M 7871.25 630.96875 C 7870.453125 630.332031 7869.65625 629.695312 7868.859375 628.949219 C 7841.285156 604.507812 7849.835938 497.179688 7763.554688 533.734375 C 7692.253906 563.914062 7613.199219 574.699219 7597.367188 628.046875 C 7591.734375 626.558594 7582.96875 627.941406 7573.191406 642.976562 C 7559.007812 664.710938 7563.683594 691.648438 7595.667969 711.253906 C 7604.910156 772.679688 7642.101562 818.851562 7667.445312 831.445312 C 7692.414062 895.203125 7625.207031 939.519531 7625.207031 939.519531 C 7625.207031 939.519531 7753.246094 1062.789062 7840.488281 934.789062 C 7838.46875 937.710938 7825.34375 923.789062 7821.414062 896.90625 C 7817.90625 873.046875 7800.320312 827.460938 7800.320312 827.460938 C 7834.058594 794.886719 7853.554688 768.054688 7864.183594 708.703125 C 7874.859375 701.53125 7885.222656 696.910156 7891.914062 682.667969 C 7901.054688 663.0625 7896.484375 626.824219 7871.25 630.96875 Z M 7871.25 630.96875 " fill-opacity="1" fill-rule="nonzero"/><path fill="#000000" d="M 7678 642.996094 C 7678.410156 643.335938 7678.800781 643.695312 7679.171875 644.074219 C 7679.546875 644.449219 7679.898438 644.84375 7680.234375 645.257812 C 7680.566406 645.667969 7680.882812 646.097656 7681.171875 646.539062 C 7681.464844 646.984375 7681.734375 647.441406 7681.984375 647.910156 C 7682.230469 648.378906 7682.453125 648.859375 7682.652344 649.351562 C 7682.855469 649.84375 7683.03125 650.34375 7683.179688 650.851562 C 7683.332031 651.359375 7683.457031 651.875 7683.558594 652.394531 C 7683.660156 652.917969 7683.734375 653.441406 7683.78125 653.972656 C 7683.832031 654.5 7683.855469 655.027344 7683.851562 655.558594 C 7683.847656 656.089844 7683.820312 656.621094 7683.761719 657.148438 C 7683.707031 657.675781 7683.628906 658.199219 7683.519531 658.71875 C 7683.414062 659.238281 7683.28125 659.753906 7683.125 660.261719 C 7682.96875 660.765625 7682.785156 661.265625 7682.582031 661.753906 C 7682.375 662.242188 7682.144531 662.722656 7681.890625 663.1875 C 7681.640625 663.652344 7681.363281 664.105469 7681.066406 664.546875 C 7680.769531 664.988281 7680.449219 665.410156 7680.109375 665.820312 C 7679.773438 666.226562 7679.414062 666.617188 7679.035156 666.992188 C 7678.660156 667.363281 7678.265625 667.71875 7677.851562 668.050781 C 7677.4375 668.386719 7677.011719 668.699219 7676.570312 668.992188 C 7676.125 669.285156 7675.667969 669.554688 7675.199219 669.800781 C 7674.730469 670.046875 7674.25 670.273438 7673.757812 670.472656 C 7673.265625 670.671875 7672.765625 670.847656 7672.257812 671 C 7671.75 671.148438 7671.234375 671.277344 7670.714844 671.375 C 7670.191406 671.476562 7669.667969 671.550781 7669.136719 671.601562 C 7668.609375 671.648438 7668.082031 671.671875 7667.550781 671.667969 C 7667.019531 671.664062 7666.488281 671.636719 7665.960938 671.582031 C 7665.433594 671.527344 7664.910156 671.445312 7664.390625 671.339844 C 7663.871094 671.230469 7663.355469 671.101562 7662.851562 670.941406 C 7662.34375 670.785156 7661.84375 670.605469 7661.355469 670.398438 C 7660.867188 670.191406 7660.390625 669.960938 7659.921875 669.710938 C 7659.457031 669.457031 7659.003906 669.179688 7658.5625 668.882812 C 7658.125 668.585938 7657.699219 668.269531 7657.292969 667.929688 C 7656.882812 667.589844 7656.492188 667.230469 7656.121094 666.855469 C 7655.746094 666.476562 7655.394531 666.082031 7655.058594 665.667969 C 7654.726562 665.257812 7654.410156 664.828125 7654.121094 664.386719 C 7653.828125 663.941406 7653.558594 663.488281 7653.308594 663.015625 C 7653.0625 662.546875 7652.839844 662.066406 7652.640625 661.574219 C 7652.4375 661.082031 7652.261719 660.582031 7652.113281 660.074219 C 7651.960938 659.566406 7651.835938 659.050781 7651.734375 658.53125 C 7651.632812 658.007812 7651.558594 657.484375 7651.511719 656.957031 C 7651.460938 656.425781 7651.4375 655.898438 7651.441406 655.367188 C 7651.445312 654.835938 7651.476562 654.304688 7651.53125 653.777344 C 7651.585938 653.25 7651.664062 652.726562 7651.773438 652.207031 C 7651.878906 651.6875 7652.011719 651.171875 7652.167969 650.667969 C 7652.324219 650.160156 7652.507812 649.660156 7652.714844 649.171875 C 7652.917969 648.683594 7653.148438 648.207031 7653.402344 647.738281 C 7653.65625 647.273438 7653.929688 646.820312 7654.226562 646.378906 C 7654.523438 645.941406 7654.84375 645.515625 7655.183594 645.109375 C 7655.519531 644.699219 7655.878906 644.308594 7656.257812 643.9375 C 7656.632812 643.5625 7657.03125 643.207031 7657.441406 642.875 C 7657.855469 642.539062 7658.28125 642.226562 7658.722656 641.933594 C 7659.167969 641.644531 7659.625 641.371094 7660.09375 641.125 C 7660.5625 640.878906 7661.042969 640.65625 7661.535156 640.453125 C 7662.027344 640.253906 7662.527344 640.078125 7663.035156 639.925781 C 7663.542969 639.777344 7664.058594 639.652344 7664.582031 639.550781 C 7665.101562 639.449219 7665.625 639.375 7666.15625 639.324219 C 7666.683594 639.277344 7667.210938 639.253906 7667.742188 639.257812 C 7668.273438 639.261719 7668.804688 639.289062 7669.332031 639.34375 C 7669.859375 639.398438 7670.382812 639.480469 7670.902344 639.585938 C 7671.421875 639.695312 7671.9375 639.828125 7672.441406 639.984375 C 7672.949219 640.140625 7673.449219 640.320312 7673.9375 640.527344 C 7674.425781 640.734375 7674.902344 640.964844 7675.371094 641.214844 C 7675.835938 641.46875 7676.289062 641.746094 7676.730469 642.042969 C 7677.167969 642.339844 7677.59375 642.660156 7678 642.996094 Z M 7678 642.996094 " fill-opacity="1" fill-rule="nonzero"/><path fill="#000000" d="M 7805.207031 655.09375 C 7805.421875 664.070312 7798.355469 671.511719 7789.375 671.722656 C 7780.398438 671.9375 7772.957031 664.871094 7772.746094 655.890625 C 7772.535156 646.910156 7779.601562 639.472656 7788.578125 639.257812 C 7797.558594 639.046875 7804.996094 646.113281 7805.207031 655.09375 Z M 7805.207031 655.09375 " fill-opacity="1" fill-rule="nonzero"/><path stroke-linecap="round" transform="matrix(0.531294, 0, 0, 0.53134, 6663.617383, -25.766204)" fill="none" stroke-linejoin="round" d="M 1647.098944 2576.198463 C 1675.096633 2681.099868 1715.497709 2703.500498 1849.199906 2667.999139 C 1912.702016 2651.097581 1977.799583 2646.296921 2132.897073 2625.10197 " stroke="#745612" stroke-width="13.942" stroke-opacity="1" stroke-miterlimit="10"/><path stroke-linecap="round" transform="matrix(0.531294, 0, 0, 0.53134, 6663.617383, -25.766204)" fill="none" stroke-linejoin="round" d="M 2216.603397 1824.597426 C 2243.601168 1916.596598 2260.496832 1983.298571 2287.501956 2075.297743 C 2321.102123 2189.800469 2393.397625 2317.102504 2462.80366 2416.29899 " stroke="#745612" stroke-width="12.548" stroke-opacity="1" stroke-miterlimit="10"/><path stroke-linecap="round" transform="matrix(0.531294, 0, 0, 0.53134, 6663.617383, -25.766204)" fill-opacity="1" fill="#f4d3b9" fill-rule="nonzero" stroke-linejoin="round" d="M 2045.999835 1905.701379 C 1966.403465 1812.900872 1992.401319 1804.100887 1961.499458 1782.200173 C 1923.29673 1755.101807 1879.19743 1732.201262 1905.599662 1704.000141 C 1923.20115 1685.201845 1911.003627 1669.69711 1921.598341 1660.000218 C 1947.397681 1636.401261 1918.400075 1617.80146 1956.602804 1612.699381 C 1969.601731 1611.001138 1982.203631 1612.500885 1994.298221 1616.397286 C 2004.297396 1619.499703 1989.497147 1593.099749 1968.49888 1587.497753 C 1947.500614 1581.90311 1923.701108 1584.696756 1905.202635 1573.801537 C 1894.196191 1567.302634 1886.402717 1552.400738 1894.497637 1542.902342 C 1899.497224 1536.998927 1908.297968 1535.697676 1916.297308 1534.800769 C 1941.302596 1532.102695 1979.100946 1533.602442 2004.201815 1535.300684 C 2070.600745 1539.902848 2102.598103 1565.501467 2118.096824 1582.697093 C 2146.601824 1614.397623 2151.902856 1633.997255 2156.600998 1653.699811 C 2171.702692 1716.799451 2179.900545 1745.500487 2212.000836 1814.900534 " stroke="#a2836e" stroke-width="11.153" stroke-opacity="1" stroke-miterlimit="10"/><path stroke-linecap="round" transform="matrix(0.531294, 0, 0, 0.53134, 6663.617383, -25.766204)" fill="none" stroke-linejoin="round" d="M 2045.999835 1929.903175 C 2062.498473 1974.300091 2072.402067 2002.199792 2076.60025 2045.6998 C 2096.201573 2222.699326 2123.397857 2406.800594 2140.903765 2554.099253 C 2198.303437 3176.898508 2747.397811 2875.802288 2695.997643 2161.797844 " stroke="#745612" stroke-width="12.548" stroke-opacity="1" stroke-miterlimit="10"/><path stroke-linecap="round" transform="matrix(0.531294, 0, 0, 0.53134, 6663.617383, -25.766204)" fill="none" stroke-linejoin="round" d="M 1647.098944 2932.998513 C 1804.600647 2958.398636 2065.696738 2885.300684 2204.097077 2807.402072 " stroke="#745612" stroke-width="13.942" stroke-opacity="1" stroke-miterlimit="10"/><path stroke-linecap="round" transform="matrix(0.531294, 0, 0, 0.53134, 6663.617383, -25.766204)" fill="none" stroke-linejoin="round" d="M 2004.400328 1313.198479 C 2008.598511 1327.203468 2017.700701 1339.701357 2029.69971 1348.096999 C 2032.897975 1350.302509 2036.302106 1352.397743 2038.698967 1355.50016 C 2043.198596 1361.602071 2042.000165 1370.600552 2037.302024 1376.496615 C 2032.59653 1382.40003 2025.200082 1385.59802 2017.803633 1387.002194 " stroke="#a2836e" stroke-width="13.942" stroke-opacity="1" stroke-miterlimit="10"/><path stroke-linecap="round" transform="matrix(0.531294, 0, 0, 0.53134, 6663.617383, -25.766204)" fill="none" stroke-linejoin="round" d="M 1840.002136 1194.497933 C 1869.102675 1176.398048 1906.798092 1172.898639 1938.802803 1185.198033 " stroke="#362c25" stroke-width="13.942" stroke-opacity="1" stroke-miterlimit="10"/><path stroke-linecap="round" transform="matrix(0.531294, 0, 0, 0.53134, 6663.617383, -25.766204)" fill="none" stroke-linejoin="round" d="M 2070.299299 1178.500634 C 2099.796864 1192.601195 2133.80141 1197.203359 2165.997281 1191.601364 " stroke="#362c25" stroke-width="13.942" stroke-opacity="1" stroke-miterlimit="10"/><path stroke-linecap="round" transform="matrix(0.531294, 0, 0, 0.53134, 6663.617383, -25.766204)" fill="none" stroke-linejoin="round" d="M 1973.998426 1466.599049 C 1996.599502 1476.398865 2021.501858 1480.898105 2046.102768 1479.802702 " stroke="#a2836e" stroke-width="13.942" stroke-opacity="1" stroke-miterlimit="10"/><path stroke-linecap="round" transform="matrix(0.531294, 0, 0, 0.53134, 6663.617383, -25.766204)" fill="none" stroke-linejoin="round" d="M 1932.501852 1653.596887 C 1953.897145 1653.802735 1980.997849 1655.699473 1996.798015 1670.101453 " stroke="#a2836e" stroke-width="11.153" stroke-opacity="1" stroke-miterlimit="10"/><path stroke-linecap="round" transform="matrix(0.531294, 0, 0, 0.53134, 6663.617383, -25.766204)" fill="none" stroke-linejoin="round" d="M 1912.797597 1698.898062 C 1920.201397 1697.096895 1927.796358 1700.199312 1934.803133 1703.198806 C 1950.698879 1710.102052 1967.197517 1717.40229 1978.696568 1730.400096 " stroke="#a2836e" stroke-width="11.153" stroke-opacity="1" stroke-miterlimit="10"/><path fill="#ffffff" d="M 7995.359375 1449.34375 C 7936.894531 1449.34375 7889.503906 1496.734375 7889.503906 1555.199219 C 7889.503906 1574.226562 7894.550781 1592.070312 7903.339844 1607.5 L 7889.617188 1657.105469 C 7888.972656 1659.4375 7891.117188 1661.582031 7893.449219 1660.9375 L 7943.054688 1647.214844 C 7958.488281 1656.007812 7976.328125 1661.054688 7995.359375 1661.054688 C 8053.820312 1661.054688 8101.214844 1613.664062 8101.214844 1555.199219 C 8101.214844 1496.734375 8053.820312 1449.34375 7995.359375 1449.34375 Z M 7995.359375 1449.34375 " fill-opacity="1" fill-rule="nonzero"/><path fill="#60be92" d="M 7995.359375 1468.023438 C 7947.210938 1468.023438 7908.183594 1507.054688 7908.183594 1555.199219 C 7908.183594 1574.257812 7914.316406 1591.875 7924.695312 1606.222656 L 7917.179688 1633.375 L 7944.339844 1625.863281 C 7958.6875 1636.242188 7976.300781 1642.375 7995.359375 1642.375 C 8043.503906 1642.375 8082.535156 1603.34375 8082.535156 1555.199219 C 8082.535156 1507.054688 8043.503906 1468.023438 7995.359375 1468.023438 Z M 7995.359375 1468.023438 " fill-opacity="1" fill-rule="nonzero"/><path fill="#ffffff" d="M 7970.128906 1511.453125 C 7968.234375 1507.171875 7966.234375 1507.085938 7964.421875 1507.023438 C 7962.945312 1506.960938 7961.261719 1506.960938 7959.574219 1506.960938 C 7957.90625 1506.960938 7955.160156 1507.59375 7952.851562 1510.167969 C 7950.519531 1512.714844 7943.984375 1518.914062 7943.984375 1531.523438 C 7943.984375 1544.113281 7953.058594 1556.296875 7954.308594 1558.003906 C 7955.578125 1559.691406 7971.8125 1586.382812 7997.496094 1596.652344 C 8018.847656 1605.167969 8023.199219 1603.480469 8027.820312 1603.0625 C 8032.460938 1602.617188 8042.785156 1596.863281 8044.886719 1590.875 C 8046.988281 1584.910156 8046.988281 1579.785156 8046.367188 1578.710938 C 8045.738281 1577.636719 8044.054688 1577 8041.515625 1575.714844 C 8038.996094 1574.429688 8026.570312 1568.253906 8024.238281 1567.386719 C 8021.929688 1566.542969 8020.242188 1566.125 8018.554688 1568.671875 C 8016.871094 1571.222656 8012.023438 1577 8010.542969 1578.707031 C 8009.0625 1580.417969 8007.605469 1580.625 8005.070312 1579.363281 C 8002.550781 1578.074219 7994.410156 1575.375 7984.753906 1566.648438 C 7977.242188 1559.863281 7972.164062 1551.492188 7970.683594 1548.917969 C 7969.207031 1546.367188 7970.519531 1544.976562 7971.785156 1543.691406 C 7972.933594 1542.550781 7974.328125 1540.695312 7975.59375 1539.203125 C 7976.84375 1537.703125 7977.261719 1536.652344 7978.113281 1534.941406 C 7978.945312 1533.234375 7978.53125 1531.738281 7977.90625 1530.453125 C 7977.289062 1529.160156 7972.375 1516.511719 7970.128906 1511.453125 Z M 7970.128906 1511.453125 " fill-opacity="1" fill-rule="nonzero"/><g clip-path="url(#id3)"><path fill="#1f212b" d="M 7892.589844 1664.171875 C 7890.964844 1664.171875 7889.410156 1663.535156 7888.214844 1662.339844 C 7886.605469 1660.734375 7886.011719 1658.46875 7886.617188 1656.277344 L 7899.996094 1607.910156 C 7891.089844 1591.824219 7886.390625 1573.628906 7886.390625 1555.199219 C 7886.390625 1495.113281 7935.273438 1446.230469 7995.359375 1446.230469 C 8055.445312 1446.230469 8104.328125 1495.113281 8104.328125 1555.199219 C 8104.328125 1615.285156 8055.445312 1664.167969 7995.359375 1664.167969 C 7976.929688 1664.167969 7958.730469 1659.464844 7942.648438 1650.558594 L 7894.277344 1663.941406 C 7893.71875 1664.097656 7893.148438 1664.171875 7892.589844 1664.171875 Z M 7943.054688 1644.105469 C 7943.59375 1644.105469 7944.125 1644.242188 7944.597656 1644.511719 C 7960.019531 1653.300781 7977.570312 1657.941406 7995.359375 1657.941406 C 8052.011719 1657.941406 8098.101562 1611.851562 8098.101562 1555.199219 C 8098.101562 1498.546875 8052.011719 1452.457031 7995.359375 1452.457031 C 7938.707031 1452.457031 7892.617188 1498.546875 7892.617188 1555.199219 C 7892.617188 1572.984375 7897.257812 1590.539062 7906.042969 1605.960938 C 7906.457031 1606.679688 7906.5625 1607.53125 7906.339844 1608.332031 L 7892.621094 1657.941406 L 7942.226562 1644.21875 C 7942.5 1644.140625 7942.777344 1644.105469 7943.054688 1644.105469 Z M 7943.054688 1644.105469 " fill-opacity="1" fill-rule="nonzero"/></g><path fill="#1f212b" d="M 8022.65625 1605.039062 C 8018.261719 1605.039062 8011.417969 1603.875 7996.921875 1598.097656 C 7981.390625 1591.890625 7966.003906 1578.261719 7953.605469 1559.730469 C 7953.335938 1559.335938 7953.160156 1559.066406 7953.066406 1558.941406 C 7949.8125 1554.496094 7942.429688 1543.160156 7942.429688 1531.523438 C 7942.429688 1519.066406 7948.609375 1512.4375 7951.246094 1509.609375 L 7951.703125 1509.117188 C 7954.710938 1505.765625 7958.210938 1505.40625 7959.574219 1505.40625 C 7961.285156 1505.40625 7962.992188 1505.40625 7964.488281 1505.472656 C 7966.894531 1505.554688 7969.429688 1506.042969 7971.550781 1510.828125 C 7972.882812 1513.824219 7975.097656 1519.359375 7976.878906 1523.804688 C 7978.011719 1526.625 7979.078125 1529.292969 7979.3125 1529.773438 C 7979.964844 1531.125 7980.699219 1533.203125 7979.515625 1535.625 L 7979.132812 1536.40625 C 7978.480469 1537.746094 7977.964844 1538.804688 7976.792969 1540.203125 C 7976.371094 1540.695312 7975.949219 1541.222656 7975.519531 1541.75 C 7974.632812 1542.84375 7973.714844 1543.976562 7972.886719 1544.796875 C 7971.640625 1546.0625 7971.164062 1546.640625 7972.035156 1548.140625 C 7973.804688 1551.21875 7978.679688 1559.066406 7985.800781 1565.496094 C 7993.671875 1572.609375 8000.394531 1575.574219 8004.003906 1577.164062 C 8004.746094 1577.488281 8005.34375 1577.753906 8005.777344 1577.980469 C 8007.898438 1579.039062 8008.496094 1578.699219 8009.367188 1577.691406 C 8010.914062 1575.90625 8015.65625 1570.242188 8017.257812 1567.816406 C 8019.722656 1564.082031 8022.761719 1565.195312 8024.769531 1565.925781 C 8027.316406 1566.871094 8040.246094 1573.320312 8042.222656 1574.332031 L 8043.597656 1575.011719 C 8045.554688 1575.96875 8046.964844 1576.65625 8047.707031 1577.929688 C 8048.722656 1579.683594 8048.421875 1585.515625 8046.351562 1591.394531 C 8043.941406 1598.246094 8032.828125 1604.152344 8027.960938 1604.613281 C 8027.523438 1604.65625 8027.097656 1604.703125 8026.65625 1604.757812 C 8025.484375 1604.890625 8024.222656 1605.039062 8022.65625 1605.039062 Z M 7959.667969 1508.515625 C 7958.886719 1508.515625 7956.34375 1508.605469 7954.011719 1511.203125 L 7953.527344 1511.730469 C 7950.933594 1514.507812 7945.542969 1520.292969 7945.542969 1531.523438 C 7945.542969 1542.242188 7952.503906 1552.902344 7955.496094 1556.996094 C 7955.664062 1557.214844 7955.878906 1557.53125 7956.191406 1557.996094 C 7968.246094 1576.015625 7983.121094 1589.226562 7998.078125 1595.207031 C 8017 1602.753906 8022.15625 1602.144531 8026.296875 1601.660156 C 8026.761719 1601.601562 8027.222656 1601.550781 8027.679688 1601.507812 C 8031.703125 1601.125 8041.535156 1595.71875 8043.421875 1590.355469 C 8045.363281 1584.839844 8045.335938 1580.253906 8045 1579.445312 C 8044.757812 1579.035156 8043.589844 1578.464844 8042.238281 1577.808594 L 8040.8125 1577.101562 C 8037.875 1575.601562 8025.859375 1569.640625 8023.699219 1568.84375 C 8021.457031 1568.027344 8020.871094 1567.996094 8019.859375 1569.53125 C 8018.039062 1572.285156 8012.902344 1578.367188 8011.726562 1579.726562 C 8009.210938 1582.632812 8006.472656 1581.804688 8004.382812 1580.753906 C 8003.96875 1580.546875 8003.421875 1580.304688 8002.753906 1580.007812 C 7999.25 1578.464844 7991.960938 1575.253906 7983.71875 1567.800781 C 7976.265625 1561.070312 7971.1875 1552.894531 7969.347656 1549.695312 C 7967.253906 1546.082031 7969.488281 1543.8125 7970.6875 1542.597656 C 7971.433594 1541.859375 7972.273438 1540.816406 7973.109375 1539.785156 C 7973.550781 1539.238281 7973.992188 1538.695312 7974.417969 1538.191406 C 7975.339844 1537.089844 7975.742188 1536.273438 7976.34375 1535.03125 L 7976.734375 1534.242188 C 7977.191406 1533.300781 7977.128906 1532.394531 7976.515625 1531.125 C 7976.25 1530.570312 7975.425781 1528.527344 7973.996094 1524.960938 C 7972.226562 1520.535156 7970.019531 1515.03125 7968.710938 1512.085938 L 7968.710938 1512.078125 C 7967.203125 1508.675781 7965.957031 1508.632812 7964.375 1508.578125 C 7962.925781 1508.515625 7961.300781 1508.515625 7959.667969 1508.515625 Z M 7959.667969 1508.515625 " fill-opacity="1" fill-rule="nonzero"/><path fill="#1f212b" d="M 7995.359375 1642.375 C 7977.621094 1642.375 7960.566406 1637.070312 7945.984375 1627.023438 L 7917.597656 1634.875 C 7917.050781 1635.03125 7916.476562 1634.871094 7916.082031 1634.476562 C 7915.6875 1634.078125 7915.53125 1633.5 7915.683594 1632.960938 L 7923.53125 1604.574219 C 7913.488281 1589.996094 7908.183594 1572.9375 7908.183594 1555.199219 C 7908.183594 1507.128906 7947.289062 1468.023438 7995.359375 1468.023438 C 8003.371094 1468.023438 8011.375 1469.132812 8019.132812 1471.332031 C 8019.960938 1471.566406 8020.441406 1472.429688 8020.210938 1473.253906 C 8019.976562 1474.078125 8019.105469 1474.5625 8018.289062 1474.332031 C 8010.800781 1472.210938 8003.085938 1471.136719 7995.359375 1471.136719 C 7949.007812 1471.136719 7911.296875 1508.847656 7911.296875 1555.199219 C 7911.296875 1572.539062 7916.550781 1589.207031 7926.503906 1603.390625 C 7926.769531 1603.769531 7926.851562 1604.25 7926.726562 1604.703125 L 7919.410156 1631.144531 L 7945.855469 1623.828125 C 7946.300781 1623.695312 7946.78125 1623.789062 7947.167969 1624.050781 C 7961.355469 1634.003906 7978.019531 1639.261719 7995.359375 1639.261719 C 8041.710938 1639.261719 8079.421875 1601.550781 8079.421875 1555.199219 C 8079.421875 1532.839844 8070.738281 1511.792969 8054.96875 1495.933594 C 8054.363281 1495.320312 8054.363281 1494.335938 8054.972656 1493.730469 C 8055.585938 1493.125 8056.570312 1493.125 8057.175781 1493.738281 C 8073.527344 1510.1875 8082.535156 1532.015625 8082.535156 1555.199219 C 8082.535156 1603.265625 8043.425781 1642.375 7995.359375 1642.375 Z M 7995.359375 1642.375 " fill-opacity="1" fill-rule="nonzero"/><path fill="#1f212b" d="M 8037.390625 1482.171875 C 8037.128906 1482.171875 8036.867188 1482.109375 8036.625 1481.972656 C 8033.625 1480.277344 8030.539062 1478.773438 8027.453125 1477.496094 C 8026.660156 1477.171875 8026.285156 1476.261719 8026.609375 1475.464844 C 8026.933594 1474.671875 8027.851562 1474.289062 8028.644531 1474.621094 C 8031.84375 1475.945312 8035.046875 1477.511719 8038.15625 1479.261719 C 8038.902344 1479.6875 8039.167969 1480.636719 8038.742188 1481.386719 C 8038.460938 1481.886719 8037.929688 1482.171875 8037.390625 1482.171875 Z M 8049.84375 1490.707031 C 8049.496094 1490.707031 8049.144531 1490.59375 8048.851562 1490.351562 C 8046.925781 1488.757812 8044.867188 1487.21875 8042.738281 1485.761719 C 8042.027344 1485.277344 8041.847656 1484.308594 8042.332031 1483.601562 C 8042.816406 1482.890625 8043.789062 1482.714844 8044.496094 1483.191406 C 8046.699219 1484.695312 8048.835938 1486.300781 8050.832031 1487.949219 C 8051.496094 1488.496094 8051.589844 1489.476562 8051.042969 1490.140625 C 8050.738281 1490.519531 8050.292969 1490.707031 8049.84375 1490.707031 Z M 8049.84375 1490.707031 " fill-opacity="1" fill-rule="nonzero"/><g clip-path="url(#id4)"><path fill="#ffffff" d="M 3668.191406 647.933594 L 3587.992188 728.132812 C 3587.78125 728.339844 3587.589844 728.5625 3587.421875 728.804688 C 3587.253906 729.050781 3587.109375 729.308594 3586.996094 729.578125 C 3586.878906 729.851562 3586.789062 730.132812 3586.726562 730.421875 C 3586.667969 730.710938 3586.636719 731.003906 3586.632812 731.296875 C 3586.628906 731.59375 3586.65625 731.886719 3586.714844 732.179688 C 3586.769531 732.46875 3586.851562 732.75 3586.964844 733.023438 C 3587.078125 733.296875 3587.214844 733.558594 3587.378906 733.804688 C 3587.542969 734.050781 3587.730469 734.277344 3587.9375 734.488281 C 3588.148438 734.695312 3588.375 734.882812 3588.621094 735.046875 C 3588.867188 735.210938 3589.128906 735.347656 3589.402344 735.460938 C 3589.675781 735.574219 3589.957031 735.65625 3590.246094 735.710938 C 3590.539062 735.769531 3590.832031 735.796875 3591.128906 735.792969 C 3591.421875 735.789062 3591.714844 735.757812 3592.003906 735.699219 C 3592.292969 735.636719 3592.574219 735.546875 3592.847656 735.429688 C 3593.117188 735.316406 3593.375 735.171875 3593.621094 735.003906 C 3593.863281 734.835938 3594.085938 734.644531 3594.292969 734.433594 L 3674.492188 654.234375 C 3674.691406 654.027344 3674.871094 653.800781 3675.027344 653.558594 C 3675.183594 653.316406 3675.316406 653.058594 3675.425781 652.789062 C 3675.53125 652.523438 3675.613281 652.246094 3675.664062 651.960938 C 3675.71875 651.675781 3675.746094 651.390625 3675.742188 651.101562 C 3675.738281 650.8125 3675.707031 650.523438 3675.652344 650.242188 C 3675.59375 649.957031 3675.507812 649.683594 3675.394531 649.417969 C 3675.285156 649.148438 3675.148438 648.894531 3674.984375 648.65625 C 3674.824219 648.414062 3674.640625 648.195312 3674.4375 647.988281 C 3674.230469 647.785156 3674.011719 647.601562 3673.769531 647.441406 C 3673.53125 647.277344 3673.277344 647.140625 3673.007812 647.03125 C 3672.742188 646.917969 3672.46875 646.832031 3672.183594 646.777344 C 3671.902344 646.71875 3671.613281 646.6875 3671.324219 646.683594 C 3671.035156 646.683594 3670.75 646.707031 3670.464844 646.761719 C 3670.179688 646.8125 3669.902344 646.894531 3669.636719 647 C 3669.367188 647.109375 3669.109375 647.242188 3668.867188 647.398438 C 3668.625 647.554688 3668.398438 647.734375 3668.191406 647.933594 Z M 3668.191406 647.933594 " fill-opacity="1" fill-rule="nonzero"/></g></svg>